<svg id="データ" xmlns="http://www.w3.org/2000/svg" viewBox="0 0 271.57 313.06"><defs><style>.cls-1{fill:#fff;}</style></defs><title>logo1-white</title><path class="cls-1" d="M557.26,303.39a12.24,12.24,0,0,1-.37,3.13,3.74,3.74,0,0,0,0,.82,6.17,6.17,0,0,0-.75,2.65c0,.14-.11.28-.12.42,0,.46-.44.71-.55,1.11a3.1,3.1,0,0,1-.49,1,5.24,5.24,0,0,0-.46,1.11c-.43.56-1,1.23-1.48,2a9.53,9.53,0,0,1-1.43,1.54,4.91,4.91,0,0,1-.79.64c-.29.2-.61.37-.92.55s-.65.31-.95.51a22.85,22.85,0,0,1-2.25,1,4.09,4.09,0,0,1-1.86.26l-.7.37c-.31,0-.68,0-1,0s-.92-.15-1.34.17a.26.26,0,0,1-.27,0c-.41-.31-.89-.17-1.33-.15s-.74,0-1.1,0a4.93,4.93,0,0,1-1.15-.18c-.37-.11-.77.06-1.16-.18-.2-.12-.54,0-.8,0a2,2,0,0,0-1.11-.39c-.15,0-.31-.13-.47-.2s-.6-.34-1-.15a30.17,30.17,0,0,0-3.36-1.71c.22-.23-.11-.4-.26-.11-.51-.39-1-.78-1.49-1.17a9.78,9.78,0,0,1-1-.87,6.58,6.58,0,0,1-.67-.88l-.11.08a.71.71,0,0,1-.14-.1,20.32,20.32,0,0,1-1.77-2.18,9.79,9.79,0,0,1-1.39-2.59,4.11,4.11,0,0,0-.68-1v-.75a12.32,12.32,0,0,1-1.19-4.39l-.3-.35c0-.35,0-.72,0-1.08s.1-.79-.17-1.16c-.09-.12,0-.36,0-.55a5.65,5.65,0,0,0,0-1.37,1.59,1.59,0,0,1,.11-1.34c-.26-.83.12-1.64.08-2.47a3.91,3.91,0,0,1,.18-1.5h.62c0,.13.09.3.16.51l.71-.18c.21.2.09.22.31.28a4,4,0,0,0,1.3.29c.48-.05.66.52,1.11.57s.74-.13,1,0c.66.38,1.5.17,2,.65l3.6.29.71.71c.07.51.13.93.21,1.46a2.67,2.67,0,0,0-.13.83c.06.82-.23,1.65.16,2.44-.27.83.2,1.66,0,2.48a1.54,1.54,0,0,1,.44.88,2.18,2.18,0,0,0,.61,1.17c.36.42.55,1,1.09,1.26a11.39,11.39,0,0,1,1.22.91,4.91,4.91,0,0,1,2.27.51,1.64,1.64,0,0,1,1.21-.05.87.87,0,0,0,.67,0,6.23,6.23,0,0,1,1.31-.1c.24-.06.52-.38,1-.35s.59-.34.83-.56a3.79,3.79,0,0,0,1.46-2.58c0-.2.14-.39.18-.59a6.34,6.34,0,0,0,.19-1.79,1.29,1.29,0,0,1,.15-.89c.09-.13,0-.4,0-.6a2.23,2.23,0,0,1-.07-1,1.18,1.18,0,0,0,0-1c-.12-.27,0-.65.06-1,0-.14.13-.31.08-.43a4.43,4.43,0,0,1-.13-1.25,3.6,3.6,0,0,0-.2-1.32,2.86,2.86,0,0,1,0-1.13,6,6,0,0,0-.63-1.52,6,6,0,0,0-1.52-1.44,21.18,21.18,0,0,0-2.48-1.23,2.49,2.49,0,0,1-.3-.19.44.44,0,0,0-.56-.18,10.14,10.14,0,0,0-3-1.31,1.58,1.58,0,0,1-.69-.4,2.57,2.57,0,0,0-1.71-.71.74.74,0,0,1-.4-.17,6.11,6.11,0,0,0-1.6-.74.63.63,0,0,1-.25-.1,2.7,2.7,0,0,0-1.14-.68c-.4-.12-.75-.44-1.19-.58a2.53,2.53,0,0,1-1.2-.78c-.52-.58-1.26-.9-1.74-1.52-.17-.21-.46-.31-.64-.5-.45-.5-.87-1-1.3-1.55-.15-.19-.29-.39-.45-.56a1.7,1.7,0,0,1-.67-1.24.46.46,0,0,0-.08-.25c-.9-1.2-1.07-2.68-1.56-4a10.38,10.38,0,0,1-.18-1.42,18,18,0,0,1-.4-4.51,3.23,3.23,0,0,0-.1-.61c0-.24-.14-.52-.06-.71a1.52,1.52,0,0,0,.16-.88c0-.28.3-.55,0-.82.26-.8.11-1.68.41-2.46a2.06,2.06,0,0,0,.14-.79,4.75,4.75,0,0,1,.31-1.39c.29-1,.87-2,1.22-3a6.22,6.22,0,0,1,.66-1.06,4.34,4.34,0,0,0,.28-.46,9.37,9.37,0,0,1,2.15-2.88c.58-.59,1.22-1.1,1.82-1.66.21-.19.61,0,.71-.47,0-.16.45-.22.67-.36s.47-.46.73-.5c.91-.15,1.59-.79,2.45-1,.4-.11.82-.18,1.4-.3,1-.54,2.22-.36,3.37-.67l.26.38.13-.27a.44.44,0,0,1,.16-.06c.89,0,1.79,0,2.68,0a8.09,8.09,0,0,1,2,.21,11.71,11.71,0,0,1,2.26.5c.19.1.46.07.63.28,0,.05.11.11.15.1.63-.14,1.07.32,1.57.53s1,.61,1.46.87a6.6,6.6,0,0,1,1.59,1c.29.28.6.53.93.81l-.13.3.27.56,1.06.25a3.42,3.42,0,0,0,.5.74,6.39,6.39,0,0,1,1.51,2.3,3.27,3.27,0,0,0,.49.69,15.15,15.15,0,0,0,.84,2.38,6.41,6.41,0,0,1,.47,1.61,14.63,14.63,0,0,0,.56,2.33,3.16,3.16,0,0,1,0,.82,1.08,1.08,0,0,0,.17.36v7.77l-.33.35a5.41,5.41,0,0,0-1.5-.5c-.54,0-.88-.47-1.43-.48a6.57,6.57,0,0,1-1.52-.4l0-.08h-.82l-.51-.28a5.31,5.31,0,0,0-1.2-.22c-.53,0-.94-.34-1.5-.31s-1.12-.14-1.69-.12h-.69c-.67-.59-1.1-1.19-.73-2,0-.33-.17-.59-.1-.78a1.69,1.69,0,0,0,0-1.29c-.15-.41.06-.94-.06-1.37a4.11,4.11,0,0,0-.88-2.12,2.37,2.37,0,0,1-.38-.8c-.12-.27-.21-.55-.31-.84-.82-.17-1.13-1-1.94-1.21s-1.5-.32-2.23-.52a1.39,1.39,0,0,1-.41.16c-.61,0-1.2.09-1.8.16-1.25.16-1.92,1.09-2.74,1.83-.08.07-.05.27-.05.3l-.38.29c-.19.54-.33.93-.52,1.45v.64l-.36.68a4.26,4.26,0,0,0,0,1,4.26,4.26,0,0,1,0,1,4,4,0,0,1,0,1.1,3.7,3.7,0,0,0,.06,1.56c.14.89.25,1.77.35,2.61.19.29.37.54.52.8a4.19,4.19,0,0,0,2,1.88c1.17.44,2.23,1.1,3.41,1.49a15.93,15.93,0,0,0,2.45,1c.22.42.7.26,1,.45a6.56,6.56,0,0,0,1.68.78c1.18.28,2.06,1.21,3.26,1.4.05,0,.08.09.13.12a2.41,2.41,0,0,0,1.28.59c.23,0,.45.28.67.44a15.41,15.41,0,0,1,1.55,1.22c.71.7,1.41,1.42,2.08,2.14a12.21,12.21,0,0,1,1.68,2.73,15.72,15.72,0,0,1,.59,1.67c.22.58.16,1.24.55,1.77,0,0,0,.06,0,.09a8.2,8.2,0,0,0,.22,1.51c.1.33,0,.61,0,.9a14.87,14.87,0,0,1,.31,2.4c0,1.36,0,2.71,0,4.07C557.25,300.63,557.26,303.31,557.26,303.39Z" transform="translate(-285.86 -141.83)"/><path class="cls-1" d="M491.66,258.23c.1.31.17.56.27.81.17.43.38.85.55,1.29a9.36,9.36,0,0,1,.4,1.27,17.07,17.07,0,0,1,.74,3.1,9.74,9.74,0,0,0,.44,1.81,1.89,1.89,0,0,1,.09.34,3.9,3.9,0,0,0,.36,2.2c.14.22-.28.48,0,.73.06,1,.16,2,.17,3a8.38,8.38,0,0,0,.34,2.12c.05.18,0,.38.05.54.15.43-.31.76-.14,1.23a4.56,4.56,0,0,1,.13,1.34c0,.44,0,.87,0,1.3v1.39c0,.43,0,.86,0,1.29a1.55,1.55,0,0,0,.13.89,1,1,0,0,1,0,.71,2.7,2.7,0,0,0,0,1.94.92.92,0,0,1-.05.71.91.91,0,0,0,0,.94c-.05.46-.1.84-.14,1.23-.07.65.16,1.34-.19,2,.26.36-.17.78.11,1.17a.67.67,0,0,1,.06.61c-.31.46,0,1-.33,1.48-.06.08,0,.28.06.42s.14.35.08.43c-.28.36-.06.79-.18,1.15-.21.63-.12,1.29-.32,1.93-.15.47-.07,1-.21,1.51-.2.72-.31,1.45-.45,2.18a6.41,6.41,0,0,0-.11.88,4.92,4.92,0,0,1-.34,1.47c-.11.33-.14.69-.22,1a5,5,0,0,1-.18.5c-.19.47-.37.94-.56,1.4a2.86,2.86,0,0,0-.35.7,1.35,1.35,0,0,1-.3.74c-.11.13-.09.39-.13.64a4.16,4.16,0,0,0-.61.93,5.24,5.24,0,0,1-1.41,2.15c-.79.66-1.27,1.63-2.21,2.1-.11.06-.16.25-.24.38-.71.36-1.43.72-2.16,1.07a4.62,4.62,0,0,1-1.51.49,8.3,8.3,0,0,0-1.53.51c-.42.06-1,.16-1.49.2a11.73,11.73,0,0,0-1.57,0c-.54.12-1-.16-1.55,0l-.18-.38-.24.36-1.15-.17a3.07,3.07,0,0,1-1.88.1,7.69,7.69,0,0,0-1.34-.13c-.8,0-1.61,0-2.41,0-.36,0-.68-.29-1.1,0-.26.16-.66-.15-1,0-.79-.32-1.64,0-2.42-.26-.28-.08-.4.2-.66.09a3.6,3.6,0,0,0-.74,0c-.38,0-.77.11-1.16-.13-.15-.08-.46.15-.66.12s-.38-.23-.66,0a.83.83,0,0,1-.71,0,6.73,6.73,0,0,0-2-.18,2,2,0,0,1-.27-1.8,7.68,7.68,0,0,1,.12-1,3.11,3.11,0,0,0,0-1.1,3.72,3.72,0,0,0-.13-1,2.79,2.79,0,0,1,.06-1.34,1.23,1.23,0,0,0,0-.78,1,1,0,0,1-.07-.71,3.14,3.14,0,0,0,0-1.94c-.1-.34.09-.75.1-1.13a2.06,2.06,0,0,0-.1-1.25.34.34,0,0,1-.05-.26,3,3,0,0,0,.15-.95c-.07-.33-.25-.6,0-.92a.44.44,0,0,0,0-.36c-.15-.37-.33-.73,0-1.09-.46-.45.29-1-.17-1.51-.05-.05,0-.23.05-.34a7.18,7.18,0,0,0,0-1.39.92.92,0,0,1-.06-.35,2.09,2.09,0,0,0,0-1.48c-.21-.43.13-1,0-1.46-.05-.17.1-.39.13-.51-.07-.54-.13-1-.19-1.44l.47-1-.39.09a1.33,1.33,0,0,1,0-.56c.08-.21.22-.34,0-.57s0-.28,0-.42.14-.28.1-.32c-.28-.34,0-.7-.07-1a1.1,1.1,0,0,1,.09-.94c-.28-.82.15-1.64,0-2.47a4.57,4.57,0,0,1-.19-1.52,4.29,4.29,0,0,1,.14-1,2.16,2.16,0,0,0-.05-1.15,1.3,1.3,0,0,1,0-.78,1.71,1.71,0,0,0,.08-.89,15.18,15.18,0,0,1-.13-4.2,3.94,3.94,0,0,0,0-1.93.48.48,0,0,1,.07-.34,1,1,0,0,0,0-1,.53.53,0,0,1,0-.59.39.39,0,0,0,.06-.34.85.85,0,0,1-.11-.85c.16-.31-.13-.55-.07-.85s-.08-.84.18-1.24c.07-.12,0-.36-.06-.52a3.17,3.17,0,0,1,0-1.7c0-.14.13-.31.09-.43a11,11,0,0,1-.17-3.19,8.67,8.67,0,0,0,.09-1.67,10.14,10.14,0,0,1-.09-1.73c0-.58,0-1.17,0-1.75a4.68,4.68,0,0,1,0-.65.49.49,0,0,1,.1-.22c0-.54-.09-1-.11-1.43a3.29,3.29,0,0,1,0-1.37c.23-.46-.15-.79-.06-1.2a8.68,8.68,0,0,0,.12-1.35c0-.46.08-.91.13-1.4l.43-.24a6,6,0,0,0,2.67.06,1.94,1.94,0,0,1,.62-.07,3.25,3.25,0,0,0,1.85,0c.05,0,.14-.06.16,0,.43.43.95,0,1.43.15a4.81,4.81,0,0,0,1.47,0c.38,0,.75-.08,1.13-.08s.72.07,1.08.08.8,0,1.2,0,.68.11,1-.15a.42.42,0,0,1,.35,0,4.07,4.07,0,0,0,2.24.08c.32,0,.58.24.84.06a1.21,1.21,0,0,1,.78-.17,3.13,3.13,0,0,1,.79.14,4.47,4.47,0,0,0,1.37,0,16,16,0,0,1,4.51.69,3.9,3.9,0,0,1,1,.38c.25.14.64.11.92.28a24.08,24.08,0,0,1,2.94,1.88,7.28,7.28,0,0,1,1.57,1.78,1.81,1.81,0,0,0,.37.36c.09.08.25.12.28.22.21.58.6,1.07.83,1.65a7.18,7.18,0,0,0,.5,1A9,9,0,0,0,491.66,258.23Zm-8.24,16.49a4.79,4.79,0,0,0,0-1.49,18.18,18.18,0,0,1-.3-2.32c-.16-.61-.06-1.32-.24-2s-.09-1.33-.51-1.81a6.43,6.43,0,0,0-.54-2.41c-.21-.38-.19-.87-.39-1.26a20.61,20.61,0,0,0-1.17-1.9,6.11,6.11,0,0,0-.67-.85,3,3,0,0,0-2.08-.89,4.9,4.9,0,0,1-1.9-.17c-.13-.06-.34.06-.51.09a3.54,3.54,0,0,1-2.06-.1,1.92,1.92,0,0,1-.31.18c-.33.11-.66-.24-1,0-.05,0-.17,0-.25-.05a1.4,1.4,0,0,0-1.73.65,2,2,0,0,1,.15.77c-.05.21-.19.35,0,.56a.4.4,0,0,1,0,.35c-.31.39-.17.83-.16,1.24,0,.88.13,1.76.16,2.63,0,.35-.27.78-.14,1,.26.52-.12,1,.13,1.52.09.2-.1.52-.1.78,0,.73,0,1.45,0,2.18s0,1.2,0,1.8c0,.11-.12.27-.08.32.21.27.14.47,0,.75s.06.45.11.67-.24.69-.12.95a1.75,1.75,0,0,1,.14,1,5.08,5.08,0,0,0,0,1.74c0,.19-.1.41-.11.61a4.36,4.36,0,0,0,0,1.35,2.79,2.79,0,0,1,.11,1c0,.32-.16.64-.16,1a8,8,0,0,0,.17,1.06c0,.15.06.37,0,.45-.27.27-.06.48,0,.73a1.87,1.87,0,0,1,0,.56l-.47-.17-.22.27.51.11c0,.41.42.76.16,1.2s.33.81-.11,1.15a1,1,0,0,1,0,1.15c.06.08.13.13.13.18,0,.54,0,1.08,0,1.62,0,.18-.14.39-.08.52a5.42,5.42,0,0,1,.16,2.08,2.26,2.26,0,0,1-.16.59,1.61,1.61,0,0,1,.13,1.41c-.19.58.28,1.15-.07,1.68.37.32-.14.71.08,1.08a1.71,1.71,0,0,1,0,.82c0,.3-.08.6-.09.9s.16.56.07.74a1.86,1.86,0,0,0-.13,1.43,9.37,9.37,0,0,1,.14,2.36,3.06,3.06,0,0,1-.15.69l.39.47c.59.13,1.11-.06,1.62.2a1.26,1.26,0,0,0,1,0,2.11,2.11,0,0,1,1-.14c.73,0,1.42.26,2.16.19a2.22,2.22,0,0,1,1.43.16.61.61,0,0,0,.46,0,6.75,6.75,0,0,0,1.67-.79,6,6,0,0,0,1.74-2.57c.05-.11,0-.27.11-.33a2.16,2.16,0,0,0,.64-1.88l.55-1.07c0-.23,0-.48,0-.72a2.38,2.38,0,0,1,.17-.79,3.43,3.43,0,0,0,.18-1.23,6.46,6.46,0,0,1,.23-1.24c0-.17.15-.33.15-.5a16.6,16.6,0,0,1,.17-2.63c.14-.7,0-1.44.19-2.16.12-.53-.05-1.12,0-1.66a12.87,12.87,0,0,1,.15-1.51c.05-.16-.1-.38-.15-.56a1.34,1.34,0,0,0,.16-.43c0-1.6,0-3.21,0-4.81a2.3,2.3,0,0,0,0-.71,1.79,1.79,0,0,1,.06-1.55c-.36-.59-.15-1.22-.21-1.81s.16-1.23-.18-1.79C483.53,275.16,483.57,274.49,483.42,274.72Z" transform="translate(-285.86 -141.83)"/><path class="cls-1" d="M378.16,250.29c.33-.1.56-.15.78-.23a15.48,15.48,0,0,1,1.57-.56l1.55-.39a1.41,1.41,0,0,1,.46,0,1.71,1.71,0,0,0,1.29-.37c1,0,2,0,2.94,0a7.88,7.88,0,0,0,1.29,0c.42-.09.86.17,1.33.18s.84.28,1.27.33a18.72,18.72,0,0,1,4.85,1.68,1.23,1.23,0,0,1,.68.51,1,1,0,0,0,.51.35c1.29.47,2.08,1.63,3.2,2.32.38.92,1.37,1.44,1.6,2.47a.81.81,0,0,0,.2.39,6.61,6.61,0,0,1,1.24,2.36,6,6,0,0,1,.57,1.86,3.16,3.16,0,0,0,.21.77,1,1,0,0,1,0,1c.25.71.61,1.4.19,2.17a.58.58,0,0,0,0,.45c.39,1.2.07,2.43.17,3.65a2.15,2.15,0,0,0,0,1.56,7.77,7.77,0,0,1,0,1.93,7.5,7.5,0,0,1-.16,2.36c-.09.25.06.58.1.88a3.15,3.15,0,0,1-.12,1.87,4.63,4.63,0,0,1,.08,2.22,18,18,0,0,0,0,2.54c0,.14.09.29.08.43,0,.38-.23.81-.12,1.13a3.05,3.05,0,0,1,.11,1.07c0,.23-.15.46-.15.69s.15.45.15.68a4.88,4.88,0,0,1-.12.89,1.75,1.75,0,0,1,.12.57c0,.29-.22.63-.13.86a1.94,1.94,0,0,1,.14.88,3.61,3.61,0,0,0-.15.77c0,.22.27.41,0,.65a.26.26,0,0,0,0,.26,2.46,2.46,0,0,1,0,1.65A3.15,3.15,0,0,0,404,295a2.44,2.44,0,0,0-.09,1.59,3.56,3.56,0,0,1,0,1.59,6.52,6.52,0,0,0,.12,2.87,4.3,4.3,0,0,0-.36,2.48,2.08,2.08,0,0,0-.58,1.49.74.74,0,0,1-.1.34,19.18,19.18,0,0,1-2.32,4.3,23.45,23.45,0,0,1-2.21,2.25,8.53,8.53,0,0,1-1.3,1c-.46.29-.93.54-1.37.87s-1.05.39-1.51.69a6.47,6.47,0,0,1-2.58.9,1.5,1.5,0,0,0-.58.21,3.82,3.82,0,0,1-2.42.47c-.53.24-1,.65-1.62.23a.47.47,0,0,0-.35,0c-.52.26-1.06.06-1.58.1a16.35,16.35,0,0,1-1.73-.16,9.31,9.31,0,0,1-2.45-.41,6.65,6.65,0,0,1-2-.63c-.18-.11-.48,0-.56-.05a9.24,9.24,0,0,0-1.4-.71,10.77,10.77,0,0,1-1.81-1,4.94,4.94,0,0,1-1.54-1c-.79-.94-1.94-1.55-2.45-2.73-.63-.39-.64-1.19-1.1-1.73a5.63,5.63,0,0,1-.74-1.79c-.26-.78-.51-1.57-.71-2.37a2.33,2.33,0,0,1-.16-1.52c.07-.18-.15-.45-.15-.68,0-.76.08-1.52.07-2.28,0-.42-.19-.84.05-1.25a25.82,25.82,0,0,1-.13-4,1,1,0,0,1,.08-.43.89.89,0,0,0,0-.78,2.15,2.15,0,0,1,0-1.58,5.23,5.23,0,0,1-.13-.87c0-1,0-2,0-3.05,0-.21.08-.41.11-.62s.15-.53.05-.7a2.86,2.86,0,0,1-.15-1.44q0-2.26,0-4.53a10.1,10.1,0,0,1,.13-1.06,5.62,5.62,0,0,1-.13-.86,3.21,3.21,0,0,1,.12-1.51,3.75,3.75,0,0,1-.12-1.63c0-.52,0-1.05,0-1.57,0-.37.18-.71.05-1.11a3.38,3.38,0,0,1,0-1.19,3.83,3.83,0,0,1,.17-.87c-.06-.4-.35-.78,0-1.2a.55.55,0,0,0,0-.44,5,5,0,0,1-.08-2.42,11.66,11.66,0,0,0-.08-1.31,2.77,2.77,0,0,1,.14-1.06,8.56,8.56,0,0,0,.22-1.6c.07-.51.16-1,.21-1.52a6.64,6.64,0,0,0,.56-1.59c0-.31.35-.61.53-.92.37-.64.73-1.3,1.1-1.94.26-.44.54-.87.81-1.29a.72.72,0,0,1,.26-.26,7.3,7.3,0,0,0,1.5-1.33,3,3,0,0,1,1.15-.86.7.7,0,0,0,.23-.15c.37-.35.68-.86,1.21-.93s.81-.62,1.38-.61C377.81,250.74,378,250.44,378.16,250.29Zm1.35,25.79a1.56,1.56,0,0,1,0,1.1c0,.14-.16.35-.11.41.21.24,0,.44,0,.65s.14.51.17.77a1.32,1.32,0,0,1-.05.72,1.41,1.41,0,0,0-.12.8,4.88,4.88,0,0,0,.07,1.27c.12.46-.21.85-.08,1.3a4.91,4.91,0,0,0,.13.89,2,2,0,0,1,0,1.08,6.57,6.57,0,0,0,0,2.86,1.83,1.83,0,0,1,0,.9,2.07,2.07,0,0,0,0,1.41,1.39,1.39,0,0,1,0,.61,7.22,7.22,0,0,0-.13.79c0,.33.1.65.1,1s-.07.69-.1,1a7.22,7.22,0,0,0,.15,1.33c.08,1.05,0,2.1,0,3.15a3.17,3.17,0,0,1-.2.74,1.14,1.14,0,0,1,.11,1.15,1.52,1.52,0,0,0,0,.87c.1.31.15.58,0,.76.24.88.47,1.71.68,2.46l1.05,1.11,2.29.83,1.17.15c.27-.22.69-.1,1.07-.11s.86,0,1.26,0a11.62,11.62,0,0,1,2-1.07,5.8,5.8,0,0,0,1.92-1.29,2.07,2.07,0,0,0,.67-.75c.24-.68.74-1.21.92-1.91s.16-1.13.21-1.69a10.69,10.69,0,0,1,.18-2.82.42.42,0,0,0,0-.35c-.24-.27-.1-.59-.16-.88s.19-.58,0-.93.09-.57.13-.77a8.43,8.43,0,0,1-.14-3c.05-1-.26-1.95.13-2.85a3.43,3.43,0,0,1-.15-.54c0-.24,0-.49,0-.74s0-.49,0-.74.1-.41.1-.61-.08-.45-.1-.67a3.66,3.66,0,0,1,0-.74c0-.23.23-.53.14-.67-.26-.41-.1-.84-.14-1.25s0-.68,0-1,0-.74,0-1.11a5.59,5.59,0,0,0,0-.92,5,5,0,0,1,.15-1,2.19,2.19,0,0,0-.05-.81,9.92,9.92,0,0,1-.11-2.55,1.09,1.09,0,0,0,.15-1.05,2.21,2.21,0,0,1,0-1.56.64.64,0,0,0,0-.54,1.31,1.31,0,0,1-.14-.88,21.51,21.51,0,0,1,.26-4.77c.16-.13.14-1.06-.06-.89-.07-.52-.13-1-.21-1.43a3.91,3.91,0,0,0-.95-2.27,3.86,3.86,0,0,1-.53-.85l-2.21-1.05c-.43-.06-1.09.17-1.6-.11-.37,0-.66.1-1,.12a12.52,12.52,0,0,0-1.61.15c-.51.1-.83.46-1.27.63a4.86,4.86,0,0,0-2.07,1.44,3.73,3.73,0,0,1-.7.56c-.19.32-.35.58-.49.84a5.27,5.27,0,0,0-.72,2.08c-.13,1.33-.17,2.67-.19,4a14.87,14.87,0,0,0,.16,1.61s-.06.08-.09.11l-.23-.1c-.16.47.25.73.36,1.25-.05.33-.11.81-.17,1.28,0,0-.05.07,0,.08a1,1,0,0,1,.16,1,1.69,1.69,0,0,0,0,.92A4.81,4.81,0,0,1,379.51,276.08Z" transform="translate(-285.86 -141.83)"/><path class="cls-1" d="M450.41,249.29c-.05.29-.1.54-.15.82l-.54.4.17.37L449,253a7.29,7.29,0,0,1-.7,1.53,5.27,5.27,0,0,0-.41,1.07c-.15.35-.13.78-.46,1.05,0,0-.1.11-.09.15.17.76-.43,1.29-.61,2a7.24,7.24,0,0,1-.73,1.8,5.26,5.26,0,0,0-.71,2.08,2,2,0,0,1-.26.66,34.88,34.88,0,0,0-1.56,4.05,1.75,1.75,0,0,1-.25.56,1,1,0,0,0-.31.54,6.67,6.67,0,0,1-.67,2.11c-.29,1-.64,2-1,2.93s-.53,2.05-1,3a13.74,13.74,0,0,1-.65,1.57,3.81,3.81,0,0,1-.49,2.15,6.68,6.68,0,0,0-.43,1.44c-.08.31,0,.7-.21.94a8.44,8.44,0,0,0-.7,2.11c-.12.36,0,.75-.16,1.15s-.14.69-.46.89l.25.44a4.13,4.13,0,0,1-.3.37c-.34,1.2-.19,2.37-.64,3.44a14.35,14.35,0,0,1-.18,2.26c0,.34.23.75.12,1a2.4,2.4,0,0,0-.12,1,2.3,2.3,0,0,0,.16,1.34.68.68,0,0,1,0,.54c-.13.32-.26.6,0,.92.05.06,0,.23,0,.34a1.47,1.47,0,0,0-.12.43,8.1,8.1,0,0,0,.18,1c.06.27-.4.52,0,.83.06.05-.14.34-.1.49.2.71-.19,1.4-.05,2.1a3.33,3.33,0,0,0,.19.52,1.28,1.28,0,0,0-.07,1.27.8.8,0,0,1,.05.44c0,.3.11.62-.15.88.25.28.14.53,0,.82-.07.14,0,.35.05.53a5.65,5.65,0,0,1,.11.7c0,.49-.39,1,0,1.46a2.52,2.52,0,0,0-.12,1,1.76,1.76,0,0,0,.11.93c.15.28-.05.89-.05,1.41s-.17,2-.17,2.39l-.64-.39-.28.26-.14,0c-.11,0-.24-.12-.33-.09a11.91,11.91,0,0,1-3.72.1c-.1,0-.2,0-.3,0a4.85,4.85,0,0,1-1.89-.12,1.74,1.74,0,0,0-1.08,0,3,3,0,0,1-1.67,0,6.42,6.42,0,0,0-1.53,0,5.88,5.88,0,0,1,.11-2.15c-.05-.17-.32-.49-.05-.86.08-.11,0-.3.09-.43.16-.31-.36-.53-.09-.84s-.09-.51-.08-.75a4.92,4.92,0,0,1,.11-1.91.63.63,0,0,0-.06-.5.55.55,0,0,1,.12-.67,2.35,2.35,0,0,1-.11-1.67c.05-.21.15-.37,0-.6a.64.64,0,0,1,0-.39,4.12,4.12,0,0,0,0-1.88,1.7,1.7,0,0,1,.11-1.41,2.09,2.09,0,0,1-.17-.59c0-1.32,0-2.65,0-4,0-.29.17-.58.17-.87a3.1,3.1,0,0,0-.15-1.44c-.12-.23.08-.59.07-.85s-.09-.52-.09-.79a8.09,8.09,0,0,0-.35-2.76,9.34,9.34,0,0,1-.22-1.6c-.12-.7-.28-1.4-.42-2.09,0-.27-.07-.54-.13-.79s-.1-.72-.3-.91c-.36-.35-.16-.84-.44-1.16a9.12,9.12,0,0,0-.49-2.26,5,5,0,0,0-.62-1.57v-.78l-.74-1.45a2.43,2.43,0,0,0-.45-1.55,5.4,5.4,0,0,1-.47-1.7,2.09,2.09,0,0,0-.2-.67c-.35-.46-.2-1.14-.68-1.53,0-.57-.46-1-.54-1.5-.15-1.11-.79-2-1-3.12a7.49,7.49,0,0,0-.65-1.63,11.8,11.8,0,0,0-.75-1.89c-.08-.11,0-.3-.06-.45a3.35,3.35,0,0,0-.52-1.4c-.13-.17-.31-.35-.33-.53-.06-.74-.59-1.3-.72-2a17,17,0,0,0-.91-2.2c-.12-.34-.2-.68-.3-1a.66.66,0,0,0-.07-.26,8.22,8.22,0,0,1-1-2.44c-.06-.13-.08-.28-.14-.42-.47-1.08-1-2.17-1.41-3.26a4.12,4.12,0,0,1-.16-.74,4.43,4.43,0,0,0,2.55,0,.37.37,0,0,1,.24.06.92.92,0,0,0,.78,0,2.1,2.1,0,0,1,1.16,0,2.55,2.55,0,0,0,1,.13h3.33a4.68,4.68,0,0,0,.69-.09,3.93,3.93,0,0,0,1.31,0,1,1,0,0,1,.84,0c.12.06.33-.06.52-.1.13.11.28.26.42.39v.73a10.36,10.36,0,0,1,.93,2.82c.47.7.33,1.62.83,2.32a1.51,1.51,0,0,1,.26.83,7,7,0,0,0,.44,1.82,2.9,2.9,0,0,0,.62,1.47c.17.17.09.57.17.85.26.82.55,1.62.82,2.44a5.23,5.23,0,0,1,.18.68c0,.09,0,.22,0,.27.51.45.33,1.12.54,1.67s.35,1,.58,1.49a11,11,0,0,1,.54,1.86,8.63,8.63,0,0,0,.35,1.09c.08.25.18.49.35.93l.26.27h.73l1.06-2.62a4.73,4.73,0,0,1,.75-2.5v-.8a7.11,7.11,0,0,0,.78-2,6.81,6.81,0,0,1,.42-1.25,9.42,9.42,0,0,0,.66-2.39.33.33,0,0,1,0-.17c.74-1,.56-2.31,1.23-3.32,0-.82.54-1.5.6-2.32,0-.3.29-.57.4-.88a4.16,4.16,0,0,0,.3-1.19,5.39,5.39,0,0,1,.54-1.69c.09-.28.2-.55.31-.82a4.53,4.53,0,0,0,2.58,0c.27,0,.56.13.85.16a6.84,6.84,0,0,1,1.11,0,5.32,5.32,0,0,0,1.2,0c.4,0,.8,0,1.2,0s.86.15,1.24-.17a.32.32,0,0,1,.27,0c.31.28.59.08.91,0s.65.18,1,.13a2.41,2.41,0,0,1,1,0A5,5,0,0,0,450.41,249.29Z" transform="translate(-285.86 -141.83)"/><path class="cls-1" d="M339.43,277.56a3.48,3.48,0,0,0-.15.57,4.36,4.36,0,0,0,.13,1c0,.25-.21.51,0,.83.08.14-.13.44-.13.67,0,.83,0,1.66,0,2.49a2.29,2.29,0,0,0,.09.44,1.38,1.38,0,0,1,.08.52c-.39,1.67-.06,3.36-.17,5,.36.61,0,1.22,0,1.83,0,4.16,0,8.32,0,12.49,0,.35-.06.7-.1,1.2,0,.09.17.33.31.6-.07.17-.13.37-.22.62a1.58,1.58,0,0,0,1.81.49,5.11,5.11,0,0,1,1.47,0,2.68,2.68,0,0,0,1.34-.15,1,1,0,0,1,.71,0,1.91,1.91,0,0,0,1.41,0,1.32,1.32,0,0,1,.53,0c.37,0,.74,0,1.11,0,1.72.06,3.41-.29,5.13-.22a9.41,9.41,0,0,0,1.19,0c.78-.06,1.56-.15,2.35-.18s1.6,0,2.4,0a4,4,0,0,0,.91-.21,12.45,12.45,0,0,1-.46,1.51,12.22,12.22,0,0,0-.87,2.79c-.1.47-.33.94-.4,1.44a14.33,14.33,0,0,0-.5,3.19c0,.37-.2.77-.15,1.14a4.94,4.94,0,0,1-.06,1.21c-.55.14-1.16-.09-1.68.23a.6.6,0,0,1-.19,0c-.29,0-.49-.32-.85-.13a2.62,2.62,0,0,1-1,.13c-.3,0-.61,0-.92,0a2.56,2.56,0,0,0-.56.16c-.08,0-.26-.19-.34-.15-.55.29-1.13.05-1.69.14a17.46,17.46,0,0,1-2.4,0c-.32,0-.64.08-1.18.15-.15,0-.5-.34-.89,0a.44.44,0,0,1-.26.05l-3.74.19-1,.09a1.92,1.92,0,0,0-1.35-.06,5.32,5.32,0,0,1-1.72.14,35.85,35.85,0,0,1-3.73.2c-.43.28-.88,0-1.27,0a16.94,16.94,0,0,0-1.79.18,7.41,7.41,0,0,1-1.81.14c-.42,0-.85,0-1.34,0,0-.26,0-.49,0-.73,0-2.87,0-5.73,0-8.6a5,5,0,0,1,0-1.29,5.77,5.77,0,0,0,0-1.38v-4.17c0-.46,0-.92,0-1.39s0-.92,0-1.38.09-.69.09-1-.09-.66-.09-1-.11-.67.15-1a.29.29,0,0,0,0-.26,8.62,8.62,0,0,1-.17-2.82c0-1,0-1.91,0-2.87,0-.32.22-.66.15-.95a4.47,4.47,0,0,1-.16-1c0-3.51,0-7,0-10.55a5.65,5.65,0,0,1,.13-.79c0-.11.08-.26,0-.35a3.45,3.45,0,0,1-.1-2,1.62,1.62,0,0,0,0-.22,2.55,2.55,0,0,1,.07-1.59,1.3,1.3,0,0,0,0-.91,5.07,5.07,0,0,1-.15-2.08,5.65,5.65,0,0,1,.15-2.35c-.33-.48-.1-1-.16-1.53a1.46,1.46,0,0,1,0-.81c.22-.33-.12-.55,0-.84a4.56,4.56,0,0,0,0-.83,3.16,3.16,0,0,1,.15-1.25,1.7,1.7,0,0,0,0-1,4.52,4.52,0,0,1,0-2.22c0-.15-.13-.33-.11-.49a5.32,5.32,0,0,1,.16-2.17.45.45,0,0,0,0-.36,5.67,5.67,0,0,1-.16-2.35,5.2,5.2,0,0,1,.17-2.35,3.49,3.49,0,0,1-.07-1.07c0-.35-.1-.7-.17-1.14.61,0,1.13,0,1.64,0a3.56,3.56,0,0,0,1.62-.13,1.57,1.57,0,0,0,1.46-.05,12.44,12.44,0,0,0,3.55.17,12,12,0,0,0,3.53-.19c.18.59.5,1.1.11,1.68-.08.13,0,.36,0,.54,0,1,0,2,0,3.06,0,.32-.08.66.16,1a.66.66,0,0,1,0,.53,1.71,1.71,0,0,0,0,1.48.89.89,0,0,1,0,.46,15.43,15.43,0,0,0-.09,4.08c0,.12-.09.26-.08.38.06.6-.19,1.23.17,1.8,0,.07,0,.18,0,.27,0,.43-.23.85,0,1.28,0,.08-.05.23-.09.34a1,1,0,0,0,.09,1,2.46,2.46,0,0,0-.16.69c0,.35.22.73.14,1a3.51,3.51,0,0,0-.15,1c0,.37,0,.74,0,1.11a7.24,7.24,0,0,0,.16.9,1.27,1.27,0,0,0-.07,1,2,2,0,0,1,.05,1.35,6.48,6.48,0,0,0-.15,1.8c0,.44,0,.87,0,1.3A1.3,1.3,0,0,0,339.43,277.56Z" transform="translate(-285.86 -141.83)"/><path class="cls-1" d="M298.07,278.68a2.94,2.94,0,0,0-.16.59,5.59,5.59,0,0,0,.13,1c0,.26-.21.53,0,.86.09.14-.12.46-.13.69,0,.87,0,1.73,0,2.6a2.39,2.39,0,0,0,.09.45,1.51,1.51,0,0,1,.08.54c-.39,1.74-.07,3.49-.17,5.24.36.62,0,1.27,0,1.9,0,4.33,0,8.65,0,13,0,.37-.06.73-.1,1.25,0,.1-.08.42.06.7-.06.18.12.3,0,.56.52.45.81,1,1.62.65a4.74,4.74,0,0,1,1.47-.09,2.78,2.78,0,0,0,1.35-.21,1,1,0,0,1,.7,0,2.45,2.45,0,0,0,1.6-.25,1.61,1.61,0,0,1,.54-.08c.37,0,.73,0,1.1,0,1.71,0,2.53-.15,4.23-.13.39,0,1.61-.13,2-.17.77-.09,1.57,0,2.34-.07l2.41-.21a3.42,3.42,0,0,0,.86-.17,9,9,0,0,1-.45,1.31,13.23,13.23,0,0,0-.85,2.9c-.1.49-.33,1-.39,1.5a15.86,15.86,0,0,0-.5,3.29c0,.39-.19.81-.14,1.18a6.63,6.63,0,0,1-.06,1.25c-.55.16-1.15-.05-1.66.3-.05,0-.12,0-.18,0-.29.05-.49-.31-.85-.1a2.34,2.34,0,0,1-1,.17c-.3,0-.61,0-.92,0a3.63,3.63,0,0,0-.55.19c-.08,0-.26-.19-.33-.14-.55.33-1.12.1-1.68.21a18.94,18.94,0,0,1-2.39.13c-.32,0-.64.11-1.17.2-.15,0-.5-.34-.89,0a.44.44,0,0,1-.26.07l-3.74.34-1,.14a1.79,1.79,0,0,0-1.35,0,5.42,5.42,0,0,1-1.72.22c-1.26,0-2.5.44-3.77.35-.43.31-.9,0-1.29.09-.61.15-1.24.06-1.81.26a7.71,7.71,0,0,1-1.83.23c-.44,0-.88,0-1.38.06,0-.27,0-.52,0-.76,0-3,0-6,0-9a5.05,5.05,0,0,1,0-1.35,6.38,6.38,0,0,0,0-1.45v-5.81c0-.48,0-1,0-1.45s.09-.72.09-1.09-.09-.68-.08-1-.12-.7.15-1a.34.34,0,0,0,0-.28,8.73,8.73,0,0,1-.17-2.93c-.05-1,0-2,0-3,0-.34.21-.7.15-1a4.27,4.27,0,0,1-.17-1c0-3.67,0-7.35,0-11a6,6,0,0,1,.13-.83c0-.12.08-.27,0-.37a3.76,3.76,0,0,1-.1-2,1.85,1.85,0,0,0,0-.23,2.73,2.73,0,0,1,.07-1.67,1.41,1.41,0,0,0,0-.95,5.31,5.31,0,0,1-.15-2.17,6.19,6.19,0,0,1,.15-2.46c-.34-.5-.11-1.07-.16-1.6a1.52,1.52,0,0,1,0-.85c.22-.35-.13-.57-.05-.88a3.6,3.6,0,0,0,0-.87,3.52,3.52,0,0,1,.16-1.31,1.83,1.83,0,0,0,0-1,4.69,4.69,0,0,1,0-2.32c0-.16-.13-.35-.12-.51a6,6,0,0,1,.16-2.27.55.55,0,0,0,0-.38,6,6,0,0,1-.17-2.46,5.85,5.85,0,0,1,.17-2.46,3.8,3.8,0,0,1-.07-1.12c0-.37-.1-.73-.17-1.2.62,0,1.15,0,1.67,0s1.12.16,1.65-.14a1.53,1.53,0,0,0,1.47-.05,12,12,0,0,0,3.59.18,11.74,11.74,0,0,0,3.55-.2c.19.61.5,1.14.12,1.74-.08.14,0,.38,0,.57,0,1.06,0,2.12,0,3.17a1.6,1.6,0,0,0,.16,1,.71.71,0,0,1,0,.55,1.8,1.8,0,0,0,0,1.54.92.92,0,0,1,0,.47,16.66,16.66,0,0,0-.09,4.24c0,.13-.09.27-.08.4.06.62-.19,1.27.17,1.87,0,.07,0,.19,0,.28,0,.44-.24.88,0,1.33,0,.08-.06.24-.09.35a1,1,0,0,0,.08,1.06,2.75,2.75,0,0,0-.16.72c0,.37.22.76.14,1.09a4.33,4.33,0,0,0-.15,1c0,.38,0,.77,0,1.15a8.38,8.38,0,0,0,.17.94,1.32,1.32,0,0,0-.07,1,2.23,2.23,0,0,1,.05,1.4,7.06,7.06,0,0,0-.15,1.88c0,.44,0,.89,0,1.34A1.74,1.74,0,0,0,298.07,278.68Z" transform="translate(-285.86 -141.83)"/><path class="cls-1" d="M385.15,358.34a8.1,8.1,0,0,0-1.1,1.91c-.17.28-.32.58-.51.84-.3.41-.63.81-1,1.2s-.51.55-.77.84c-.23-.26-.51,0-.36.24a13.74,13.74,0,0,1-4.45,3.24,11.7,11.7,0,0,0-1.12.56,2,2,0,0,1-1.32.36l-.4.35-.26,0a2.12,2.12,0,0,0-1,.17c-.68.31-1.5.12-2.14.56-.31-.19-.6,0-.91,0s-.89.12-1.33.18a2.34,2.34,0,0,1-1.29.05c-.29-.11-.69,0-1.06.1a13.09,13.09,0,0,0-1.78-.19c-.63,0-1.23-.28-1.85-.09l-.45-.37a2.78,2.78,0,0,1-1.95-.49,6.42,6.42,0,0,0-1.15-.46,8.36,8.36,0,0,1-3.14-1.8c-.34-.29-.73-.53-1.08-.8a3.64,3.64,0,0,1-.55-.48c-.37-.41-.74-.83-1.08-1.26a9.08,9.08,0,0,1-.57-.81c-.23-.35-.43-.71-.69-1.14-.09-.25-.19-.59-.32-.91-.3-.74-.64-1.46-.9-2.21a20.34,20.34,0,0,1-.53-2.34c-.15-.64-.1-1.29-.31-1.93a6,6,0,0,1,0-1.47c0-.36.13-.74-.16-1.07a.3.3,0,0,1,0-.26c.24-.29.11-.58.08-.9a3.42,3.42,0,0,1,.1-.89c.05-.41.14-.82.18-1.24a5,5,0,0,1,.15-1.25.94.94,0,0,0,.08-.82c-.09-.19.08-.51.14-.76a4,4,0,0,1,.65-1.73s.09-.11.08-.15c-.18-.54.3-.89.4-1.35a7,7,0,0,1,.59-1.39,11.61,11.61,0,0,1,.7-1.24,8.09,8.09,0,0,1,.7-.74,1.8,1.8,0,0,0,.43-.66c.11-.33.46-.58.72-.85.56-.58,1.13-1.14,1.7-1.7.06-.07.13-.18.2-.18.56-.06.9-.54,1.36-.75l.19.12c0-.16.06-.3.09-.47l.47-.22c0,.15.06.3.09.47l.26,0-.14-.61c.12-.1.22-.25.35-.29a16.48,16.48,0,0,0,2.86-1.24.45.45,0,0,1,.25-.07,1,1,0,0,0,.91-.33c.06-.06.23,0,.36-.05l.17.33s.11-.05.11-.08c0-.34.37-.38.53-.4a9.48,9.48,0,0,0,1.92-.39c.52.27,1-.06,1.56,0a1.66,1.66,0,0,0,1.15-.15.88.88,0,0,1,.64,0,3.19,3.19,0,0,0,1.33.17c.4,0,.8.2,1.19,0,.62.28,1.31.1,1.93.36a7.08,7.08,0,0,0,1.2.28,3.6,3.6,0,0,0,1,.51c.68.26,1.47.27,2,.84a1.85,1.85,0,0,0,.79.4,2.5,2.5,0,0,1,1,.72c.13.13.25.34.4.37.51.1.78.51,1.11.81a9.91,9.91,0,0,1,.94,1.1c.37.47.73,1,1.08,1.45a10.47,10.47,0,0,1,.55.91l1.23,2.22v.82c.15.24.43.4.39.78a1.46,1.46,0,0,0,.17.68,2.75,2.75,0,0,1,.36,1.37c0,.43.46.84,0,1.28.4.52,0,1.19.32,1.75.21.33-.18.78,0,1.18s-.34.57-.06.93.05.57-.11.85c0,.09,0,.24,0,.36-.06.94-.11,1.88-.19,2.81a4.56,4.56,0,0,1-.18.6c-.07.28-.12.58-.19.86a1.6,1.6,0,0,1-.14.42A11.33,11.33,0,0,0,385.15,358.34Zm-25-13a8.75,8.75,0,0,1-.32,1.42,3,3,0,0,0-.17,1.15,1.71,1.71,0,0,1,0,.64,2.93,2.93,0,0,0-.1,1.78c0,.09-.05.2,0,.29a7.56,7.56,0,0,1,.14,1.05,9.52,9.52,0,0,1-.16,1.05c0,.08.08.16.1.25.18.81.36,1.62.57,2.59,0,0,.22.14.22.28a4.32,4.32,0,0,0,.74,1.81,5,5,0,0,0,2.36,2.48,8.07,8.07,0,0,0,2.36.77c.2,0,.45.21.57.13a.72.72,0,0,1,.76,0,1.64,1.64,0,0,0,.79,0c.2,0,.41-.09.61-.11l2.16-.19c.09,0,.16-.09.25-.11a7,7,0,0,0,2.27-1.2,4.29,4.29,0,0,0,2-2.33,2.36,2.36,0,0,1,.38-.78,4.72,4.72,0,0,0,.87-1.92c.14-.43,0-.88.17-1.24s.08-.84.18-1.25.32-.77.09-1.12.11-.8.08-1.21c0-.08,0-.17-.06-.26a3.14,3.14,0,0,1-.12-.61c0-.25.07-.5.07-.75s-.06-.6-.08-.9,0-.55,0-.83v-.31l-.37-.7v-.77a3.28,3.28,0,0,1-.39-.65,5.71,5.71,0,0,0-1.05-2.05c-.12-.16-.09-.46-.31-.62a13.62,13.62,0,0,1-1.3-1,6.87,6.87,0,0,0-1.88-1l-.22.15-.65-.32c-.18,0-.36.16-.45.11a3.17,3.17,0,0,0-1.52-.17,7.29,7.29,0,0,0-3.18.51,14.22,14.22,0,0,0-2.73,1.44,4.18,4.18,0,0,0-.92,1,17.73,17.73,0,0,0-1,1.67,2.23,2.23,0,0,0-.47,1.55Z" transform="translate(-285.86 -141.83)"/><path class="cls-1" d="M516.37,371.33c-.35,0-.61.15-.75.07a2.46,2.46,0,0,0-1.25-.17,1.75,1.75,0,0,1-1-.17c-.1-.06-.33.07-.58.14a3.9,3.9,0,0,0-1.73-.32c-.36.06-.64-.19-1-.06s-.69-.07-1-.15a2.09,2.09,0,0,1-.43-.21c0-.19-.07-.4,0-.54.15-.29.26-.54,0-.83a.27.27,0,0,1,0-.26,4.18,4.18,0,0,0,.17-1.89,1.2,1.2,0,0,0-.12-.8c-.1-.14,0-.4,0-.61a2.61,2.61,0,0,0,.11-.61,7.85,7.85,0,0,1,0-2.11,3,3,0,0,0-.12-.7c0-.11-.09-.26-.05-.34.22-.4-.16-.83,0-1.18a1.55,1.55,0,0,0,.13-.89c0-1.26,0-2.53,0-3.79a1.55,1.55,0,0,0-.13-.89,1.08,1.08,0,0,1,0-.81.83.83,0,0,0,0-.92c-.05-.06,0-.24,0-.33a.46.46,0,0,0,0-.59c-.15-.2-.06-.37,0-.59a2.33,2.33,0,0,0,.05-1.17,3.76,3.76,0,0,1,0-1.67,6,6,0,0,0-.05-2.54c0-.11-.1-.27-.06-.34.32-.47.11-.91,0-1.38a3.64,3.64,0,0,1,.11-1.07c0-.17.12-.45,0-.52-.33-.3.06-.59-.05-.9a3.17,3.17,0,0,1-.11-1c0-.2.14-.4.14-.6s-.14-.39-.14-.59a2.79,2.79,0,0,1,.11-.89,2.72,2.72,0,0,0,.05-1.27,4.19,4.19,0,0,1,0-2.22c0-.08,0-.19,0-.24a.81.81,0,0,1,0-.94c.1-.19,0-.47,0-.78a3.81,3.81,0,0,1,1.31.29.57.57,0,0,0,.61-.07c.38.05.7.1,1,.13a6.09,6.09,0,0,1,2.08.17c.14.07.39-.1.64-.18a4.76,4.76,0,0,0,2.24.4c1.21,0,2.43.11,3.64.17.66.39,1.39,0,2.06.19,1,.26,2,.05,2.95.35a1.76,1.76,0,0,0,.91,0c.3-.07.55.31.83,0a.26.26,0,0,1,.27,0c.35.29.77.17,1.15.16a11.63,11.63,0,0,1,3.22.37,2.35,2.35,0,0,0,.65,0c.24,0,.46-.15.73,0s.51.05.79.16a3.19,3.19,0,0,0,1.07,0l.67.7c0,.59,0,1.18,0,1.76s-.12,1.07-.11,1.6.11,1.14.16,1.66l-.48.67c.15.22.28.42.41.6v1.34c-1-.17-2-.3-2.93-.39a20.57,20.57,0,0,1-2.08-.16c-.87-.17-1.78,0-2.62-.2a18.54,18.54,0,0,0-3.78-.35c-.41,0-.82-.13-1.24-.17a2.4,2.4,0,0,1-1.24-.18s-.06,0-.09,0a20.71,20.71,0,0,1-3.12-.21c-.09.16-.24.3-.26.46-.06.41.07.85-.19,1.24,0,.07.05.23.07.34s.15.44.09.62c-.27.92.15,1.84,0,2.83l.9.68,0-.1c.55.09,3.58.09,4.22.4a2.84,2.84,0,0,0,1.94.13,4.23,4.23,0,0,1,1.28.19,1.64,1.64,0,0,0,.66-.05,4.19,4.19,0,0,0,1.83.32,7.52,7.52,0,0,1,2.58.34,1.08,1.08,0,0,0,.36,0,6.15,6.15,0,0,1,2.44.27c.15.28,0,.65.09.94a13.58,13.58,0,0,1,0,2.21c0,.36,0,.74,0,1.1a5.08,5.08,0,0,0,.17.78c-.53.91.1,1.93,0,3a3.17,3.17,0,0,0-.91-.06.89.89,0,0,1-.85-.1s-.06,0-.09,0c-.78-.06-1.56-.11-2.34-.19s-1.25-.16-1.87-.26c-.08,0-.2-.11-.24-.09-.51.4-1-.12-1.44-.1-.11,0-.23-.1-.34-.09a28.3,28.3,0,0,1-3.18-.21,10.3,10.3,0,0,1-1.33-.17,3.39,3.39,0,0,1-1.25-.16,2.66,2.66,0,0,0-1,0l-.17-.32-1.13.18-.39.83a.81.81,0,0,1,.1.21c.11.33-.17.64,0,1a1.88,1.88,0,0,1,0,1,1.77,1.77,0,0,0,0,1.28.32.32,0,0,1,0,.27,1,1,0,0,0,0,1.1c.07.17,0,.4-.08.71,0,.1.17.3.25.45s.11.09.13.09a8.79,8.79,0,0,0,1.42.19,14.66,14.66,0,0,1,3,.32c.53-.26.92.25,1.39.25h1.58a2.46,2.46,0,0,1,.34.09,5,5,0,0,0,1.77.27,5.49,5.49,0,0,1,1.61.18c.53.09,1.06,0,1.61.15a12.28,12.28,0,0,0,2.43.22,2.68,2.68,0,0,1,1.15.19,4.2,4.2,0,0,0,1.85.19l.29.28a60.83,60.83,0,0,0-.94,7.58l-.74.27c-.05,0-.14-.12-.25-.13-.65-.09-1.31-.15-2-.23a12.54,12.54,0,0,1-2.11-.34,1.13,1.13,0,0,0-.18,0,15.3,15.3,0,0,1-2.25-.21,12.37,12.37,0,0,0-2.14-.17l-.68-.36a6.66,6.66,0,0,0-1.18,0c-.35.06-.65-.39-1-.06-.4-.37-.92-.22-1.37-.31s-1,.08-1.47,0a16.13,16.13,0,0,1-2.4-.34,1,1,0,0,0-.46,0A2.91,2.91,0,0,1,516.37,371.33Z" transform="translate(-285.86 -141.83)"/><path class="cls-1" d="M480.74,353.66c-.47.43-.9.85-.51,1.57.06.12,0,.33-.08.5a1.11,1.11,0,0,0,.12,1c-.06.13-.21.31-.17.39.27.57,0,1.11,0,1.66s0,.92.06,1.47a8.65,8.65,0,0,0,.87.2c.68.08,1.38.15,2.07.18s1.42,0,2.12,0a11.68,11.68,0,0,0,1.34.19,3,3,0,0,1,1.34.15,4,4,0,0,0,1.1,0c.23,0,.46.07.68.1s.64-.17.85-.06a2.12,2.12,0,0,0,1,.13c1.21.08,2.44.12,3.64.24a28.54,28.54,0,0,0,3.57.33c.16,1.63.14,1.85-.24,2.62,0,.19.16.41.11.57-.35,1-.2,2.08-.53,3.08-.05.14,0,.31,0,.46,0,.34-.13.69-.19,1a2.84,2.84,0,0,1-1.25-.15c-.21-.11-.56.06-1,.13l-.82-.29a1.18,1.18,0,0,1-1.09.08,2.14,2.14,0,0,0-.89-.13c-1.12-.07-2.25-.1-3.36-.2a10.79,10.79,0,0,1-1.5-.35,2.92,2.92,0,0,1-2,0l-.17-.05-2.53-.19c-.69-.05-1.38-.14-2.07-.17s-1.36,0-2,0c-.43,0-.85-.36-1.28,0a6.33,6.33,0,0,0-1.18-.34c-.58-.06-1.18,0-1.76,0a3.64,3.64,0,0,1-1.53-.15c-.23-.11-.59.05-.89.05a4.78,4.78,0,0,1-.84-.08c-.35,0-.69-.13-1-.19a9,9,0,0,1,0-1.39c.06-.41-.12-.79-.06-1.2s0-.87,0-1.3.1-.85.08-1.23-.05-.77-.08-1.16,0-.86,0-1.29,0-.87,0-1.3-.15-.86.15-1.21a6.2,6.2,0,0,1-.15-.8c0-1.85,0-3.7,0-5.55a3.73,3.73,0,0,0,0-1.11,4.79,4.79,0,0,1,0-1.2v-6c0-.4,0-.8,0-1.2a5.2,5.2,0,0,0-.1-.67l.28-.76a4.61,4.61,0,0,1-.16-2.06c0-.7,0-1.41,0-2.12v-4.31a2.36,2.36,0,0,1,1.18.1,2.28,2.28,0,0,0,.71.07c.91.09,1.84-.21,2.73.17.09,0,.23,0,.34-.06s.38-.15.52-.1a7.45,7.45,0,0,0,2.35.17,6.86,6.86,0,0,0,1.2,0c.34,0,.67.26,1,0h.09c.4.1.75.34,1.23.21a3.76,3.76,0,0,1,1.38,0,39.33,39.33,0,0,0,4.85.19,1.72,1.72,0,0,1,.77.19,1.77,1.77,0,0,0,1.49.05.74.74,0,0,1,.52-.05c.41.26.84.13,1.25.17s.61-.08.88.16a.49.49,0,0,0,.36,0,10.29,10.29,0,0,1,2.48,0,5.55,5.55,0,0,1,1.24.21l.45.44a1.62,1.62,0,0,1-.07.56c-.14.23-.05.43,0,.66.05,1.1,0,2.19,0,3.29,0,0-.06.1-.09.15.35.76.07,1.57.21,2.35l-.31.29a3.16,3.16,0,0,1-1.16-.16c-.24-.12-.64,0-1,.06s-.37.13-.52.08c-.63-.18-1.28-.09-1.89-.21a2.52,2.52,0,0,0-1.14-.12c-.37.11-.67-.09-1-.05a1.28,1.28,0,0,1-1.06-.12.18.18,0,0,0-.17,0c-.55.32-1.09-.09-1.65,0a10.22,10.22,0,0,1-1.66,0,2.25,2.25,0,0,1-1.25-.16c-.11-.06-.33.06-.51.1l-.51-.26c-.53.54-1.21-.47-1.76.15-1.07-.33-1.3-.28-2,.5.07.65-.14,1.33.19,2a10.14,10.14,0,0,0-.2,2.76l.48.51c.8,0,1.57,0,2.34,0a32,32,0,0,1,3.54.22,19,19,0,0,0,2,.15,2.07,2.07,0,0,1,.42.11c.42,0,.83-.2,1.11-.07a3.09,3.09,0,0,0,1.07.14c.63.07,1.26.15,1.89.18a10.23,10.23,0,0,1,1.84,0,13.65,13.65,0,0,0,2,.17q0,.35-.09.66c-.07.27.3.52,0,.83-.06.06-.11.2-.08.25.36.49,0,1,0,1.46s0,1.05,0,1.57c.05.76.14,1.5.22,2.25l-.61.89c-.19-.06-.33-.16-.46-.14a4.5,4.5,0,0,1-1.1,0,8.22,8.22,0,0,0-1.11,0,5.63,5.63,0,0,1-1.52-.17c-.48-.14-1,.09-1.52-.18-.19-.11-.49,0-.73,0a9.91,9.91,0,0,1-2.17-.15c-.69-.19-1.45.11-2.17-.2-.21-.09-.48,0-.73,0Z" transform="translate(-285.86 -141.83)"/><path class="cls-1" d="M340.75,346c-.32.08-.63.17-.95.22a21.55,21.55,0,0,0-3,.55c-.6.16-1.22.26-1.83.37s-1.34.29-2,.36a3.94,3.94,0,0,0-.85.23c-.23.08-.45.14-.76.23-.16-.6-.29-1.14-.43-1.68a6.8,6.8,0,0,0-1.86-3.5,2,2,0,0,0-1.06-.65,2.64,2.64,0,0,1-.71-.31l-1.33-.16s-.07.11-.14.09a2.89,2.89,0,0,0-1.46,0c-.19-.28-.37,0-.54,0-.41.05-.82.16-1.36.27a5.52,5.52,0,0,1-1.12.62,4.2,4.2,0,0,0-1.85,1.3,13.14,13.14,0,0,0-1.76,2.61,3.12,3.12,0,0,0-.49,2c-.13.23-.24.45-.38.71v.49a6.6,6.6,0,0,1-.35,2.21c-.12.37.12.71,0,1.1a1.78,1.78,0,0,0-.07,1,3.08,3.08,0,0,1,0,1,1.6,1.6,0,0,0,.18,1.05,18.56,18.56,0,0,0,.2,2.34,8.57,8.57,0,0,0,.37,1,11.25,11.25,0,0,0,1.23,2.45,8.24,8.24,0,0,0,.92,1c.38.32.87.52,1.28.81a5.69,5.69,0,0,0,2.19.7,2.77,2.77,0,0,1,.38.14l3.32-.55a5.69,5.69,0,0,0,2.9-1.94,9.16,9.16,0,0,0,1.42-3c.09-.66.18-1.31.28-2.06.13-.32.5-.24.83-.22a6.86,6.86,0,0,0,1.52-.1,11,11,0,0,1,1.81-.1,2.09,2.09,0,0,0,1,0c.51-.3,1.06-.09,1.58-.31s1.05,0,1.6-.19a6.9,6.9,0,0,1,1.71,0,4.66,4.66,0,0,1-.17,1.93,12.7,12.7,0,0,0-.32,1.77,4.37,4.37,0,0,0-.35.79c-.11.67-.46,1.27-.59,1.95a3.54,3.54,0,0,1-.52.92c-.3.52-.56,1.06-.89,1.55-.16.22-.24.56-.6.62s0,.6-.46.71c-.22,0-.33.48-.56.66a11.78,11.78,0,0,1-1.83,1.53,13.27,13.27,0,0,0-1.2,1c-.39.26-.82.45-1.23.68a6.87,6.87,0,0,1-1.29.6,7.84,7.84,0,0,0-1.28.6,7.8,7.8,0,0,1-1.89.46c-1,.23-1.95.48-2.93.7a3.44,3.44,0,0,1-.64,0,8.27,8.27,0,0,0-2.53.18.41.41,0,0,1-.19,0l-1.24-.18c-.38-.06-.79.14-1.16-.15-.06-.05-.26.08-.46.14l-.7-.35h-.79l-1.87-.75a14.08,14.08,0,0,1-1.4-.56,10,10,0,0,1-1.35-.86,20.67,20.67,0,0,1-1.58-1.39,11.26,11.26,0,0,1-.74-.91c-.26-.33-.53-.65-.79-1a1.32,1.32,0,0,1-.27-.45,2.11,2.11,0,0,0-.79-1.15c-.2-.59-.38-1.15-.58-1.7a3.32,3.32,0,0,1-.44-1.45c0-.2-.2-.43-.31-.64a12.88,12.88,0,0,0-.4-2.46.34.34,0,0,1,0-.1c-.07-.9-.12-1.81-.19-2.72,0-.41.12-.86-.18-1.23.33-.34-.14-.73,0-1s.06-.72.22-1.05a1,1,0,0,0,.12-.33c.08-1.06.15-2.12.21-3.11.23-.74.43-1.41.71-2.3a4.73,4.73,0,0,1,.59-1.89,13.32,13.32,0,0,0,.9-1.91c.08-.29.13-.55.45-.71.15-.08.21-.35.29-.54s.09-.54.25-.65a9.78,9.78,0,0,0,1.25-1.49c.29-.31.53-.66.81-1a6,6,0,0,1,.49-.39c.29-.26.56-.54.93-.89.1-.07.4-.15.54-.34.4-.58,1.1-.71,1.6-1.16a7.06,7.06,0,0,1,1.74-.86,20.29,20.29,0,0,1,2.71-1.06,12.07,12.07,0,0,1,3.86-.69,6.31,6.31,0,0,0,1.43-.14,1.83,1.83,0,0,1,1.51.13c.49-.34,1,0,1.46,0a5.7,5.7,0,0,1,2.81.51,10.69,10.69,0,0,0,1.62.42,3.42,3.42,0,0,1,.8.37c.48.28,1,.57,1.41.89s.81.62,1.23.9C339.64,341.17,339,339.74,340.75,346Z" transform="translate(-285.86 -141.83)"/><path class="cls-1" d="M397.87,330.86l1.18.18c.13,0,.42-.1.71-.15s.71.15,1.1,0a3.74,3.74,0,0,1,1.11,0h1.2a2.79,2.79,0,0,0,1-.13c.28-.11.69.12,1,.12s.64-.18.95-.13.34.17.57,0,.32,0,.49.05h.51a1.34,1.34,0,0,1,.4,0,1,1,0,0,0,.78,0c.37-.16.5-.11,1,.1a2.83,2.83,0,0,1,1.86-.09,3.45,3.45,0,0,0,1.69,0,2.25,2.25,0,0,0,.35-.09c.33-.09.64.16,1,0s.71.09,1.07.07a1.94,1.94,0,0,1,1,0c.27.12.68-.11,1-.12.89,0,1.79,0,2.68,0s1.6,0,2.41,0a2.91,2.91,0,0,1,.62.15c0,.49,0,.92,0,1.35a7.64,7.64,0,0,0,.13.79,1,1,0,0,1,0,.44,16.18,16.18,0,0,0-.16,3.74,2.34,2.34,0,0,0,.19.72c-.09.16-.18.34-.28.55a2.06,2.06,0,0,1-.26,0h-6.75c-.36,0-.72.11-1.08.1s-.67-.25-1,.06a5.73,5.73,0,0,0-2.26-.15,10.21,10.21,0,0,0-1.45.13l-.37-.42-.47.53-.26-.39-2.34.37c-.12.37-.23.73-.35,1.13a2.53,2.53,0,0,1,.05,1.72,2.06,2.06,0,0,0,.14,1.6c-.27.53,0,1,.15,1.5l.12.29a5.37,5.37,0,0,0,1.77-.16c.27-.1.64,0,1.18.11a1.12,1.12,0,0,1,1.14,0,4.11,4.11,0,0,1,1.81-.14c.32,0,.68-.13,1,.15a.13.13,0,0,0,.09,0c.34.05.66-.43,1,0,.32-.27.71-.12,1.06-.15s.74,0,1.11,0a5.14,5.14,0,0,0,1.11,0c.35-.08.64.2,1,.06a3.09,3.09,0,0,1,1.1,0h1.67c.09.13.23.25.24.38,0,.31-.06.63-.06.94a8.26,8.26,0,0,0,.08,1,3.22,3.22,0,0,1,.11,1,18.92,18.92,0,0,0-.12,3.1c0,.45.18.91-.1,1.4a3.87,3.87,0,0,1-1.57-.16,1.16,1.16,0,0,0-.82,0,7.51,7.51,0,0,1-2.26.17,13.41,13.41,0,0,0-3.1.15,5.62,5.62,0,0,0-2.16-.14c-.74,0-1.48,0-2.22,0a10,10,0,0,0-3.29.29c-.09.52.1,1.11-.2,1.65a.36.36,0,0,0,0,.27,4.63,4.63,0,0,1,.09,2.42.82.82,0,0,0,0,.22,2.5,2.5,0,0,1,0,1.15,3.59,3.59,0,0,0,0,1.53,3.94,3.94,0,0,1,0,2l-.05.07c-.12.35.38.62.08,1a1,1,0,0,0,0,.95,1.16,1.16,0,0,1,0,.89,1.68,1.68,0,0,0,.05,1.45c-.7,0-1.34,0-2,0s-1.24.11-1.85.17c-.07-.22-.46-.33-.58-.19l-4.53.19h-.71a9.72,9.72,0,0,1,.16-2.59,3.1,3.1,0,0,1-.15-.65c0-.53.07-1.06.07-1.59s-.06-1.09-.07-1.64,0-1.11,0-1.66c0-.34.15-.65,0-1a3.36,3.36,0,0,1,0-1.1,5.2,5.2,0,0,0,.07-1,1.32,1.32,0,0,1,0-1c-.37-.63.3-1.32-.11-1.95l.09-4.5c0-.19-.1-.38-.09-.57a3.65,3.65,0,0,0,.15-1,4.77,4.77,0,0,1-.16-1.06c0-1.73,0-3.45,0-5.18,0-1.54,0-3.08,0-4.63a4.42,4.42,0,0,1,.16-1.8,1.61,1.61,0,0,0-.08-.88A2.53,2.53,0,0,1,397.87,330.86Z" transform="translate(-285.86 -141.83)"/><path class="cls-1" d="M434.21,331c.7-.2,1.4.14,2.05-.28l.36.32,1.81-.23a6.26,6.26,0,0,0,.93.12c1.11,0,2.22,0,3.33,0,.23,0,.46.06.89.11,0,0,.29-.16.47-.09s.62,0,.92,0,.68-.12,1,.16c.43-.33.85-.11,1.28,0a.54.54,0,0,0,.43-.06.39.39,0,0,1,.49,0,.7.7,0,0,0,.53.05,5.89,5.89,0,0,1,1.92,0h2c.68,0,1.36,0,2,0a11,11,0,0,1,1.3.22l.17.31.18-.34H460c.43.31.3.69.21,1.08a2.23,2.23,0,0,0-.08,1,1,1,0,0,1,0,.84c-.11.26,0,.64.05,1a3.44,3.44,0,0,1,0,1.06,2.7,2.7,0,0,0,0,1.41,1.39,1.39,0,0,1-.22,1.46l-3.41-.13-.22,0a1.51,1.51,0,0,1-1.14-.07.57.57,0,0,0-.44,0c-.74.29-1.47-.09-2.21,0s-1.54,0-2.31,0-1.54,0-2.31,0c-.27,0-.51-.23-.84,0-.16.09-.55-.22-.75-.13-.65.28-1.35-.34-2,.14-.05,0-.2-.09-.32-.14-.51.4-.05,1.08-.44,1.51.12.49-.11,1,0,1.47a13.11,13.11,0,0,1,0,1.66c0,.51-.17,1.05.39,1.66a2.66,2.66,0,0,0,1.81.07c.08,0,.18-.12.24-.1.74.25,1.49-.16,2.2,0a17.46,17.46,0,0,0,2.16.17,3.22,3.22,0,0,0,1.66,0c.31-.12.75.13,1.13.14.77,0,1.55,0,2.32,0a1.45,1.45,0,0,1,1,.15.56.56,0,0,0,.52,0,.65.65,0,0,1,.76,0c.11.07.33,0,.5-.08s.6-.16.86.26a4.65,4.65,0,0,0,.18,1.42c.08.16-.23.54-.14.66.36.46-.19,1,.16,1.42a5.08,5.08,0,0,0-.17,2.16,2.09,2.09,0,0,0,.15,1.25c.1.15,0,.42,0,.7a3.75,3.75,0,0,1-1.7-.09c-.06,0-.13-.07-.17-.05-.67.39-1.33-.16-2,0a9.83,9.83,0,0,1-2,0,2.25,2.25,0,0,1-1.07-.15c-.2-.11-.56.06-.93.12a6.26,6.26,0,0,0-.88-.14c-.68,0-1.36,0-2,0a3.12,3.12,0,0,1-1.16-.15c-.32-.13-.77,0-1.16.07-.17,0-.4.08-.5,0-.33-.27-.57,0-.87.09l-.68-.23-.49.47c0,.91,0,1.77,0,2.63,0,0,.07.1.1.13-.09.26-.17.51-.25.77a9,9,0,0,1,.11,2.32c0,.8,0,1.6,0,2.4a2.6,2.6,0,0,0,.14.57,2.89,2.89,0,0,0-.14,1.45,3.62,3.62,0,0,0,.16,1.6c-.37.46,0,1-.21,1.5-.29.27-.57-.18-.91.05s-.64-.14-.95-.13a4.45,4.45,0,0,0-2.08.12.43.43,0,0,1-.35,0c-.33-.28-.71-.15-1.06-.15-1.32,0-2.64,0-4,0v-2.14c0-.8,0-1.6,0-2.41a1.93,1.93,0,0,0-.16-1.15.89.89,0,0,1,.05-.71.6.6,0,0,0,0-.67A.43.43,0,0,1,434,359a2.66,2.66,0,0,0,.17-1.52c0-1.42,0-2.84,0-4.26,0-.32.12-.68-.16-1a.15.15,0,0,1,0-.08c0-.41.37-.8.13-1.22a1.36,1.36,0,0,1,0-1.21,1.11,1.11,0,0,0,0-.72c-.12-.3-.27-.54,0-.83,0,0,0-.18,0-.25a.71.71,0,0,1,0-.77.56.56,0,0,0,.09-.34c-.36-.92.18-1.84,0-2.75a4.44,4.44,0,0,1-.1-.62,5.81,5.81,0,0,1,0-1.25,7.08,7.08,0,0,0,0-2.43c0-.24-.16-.52-.08-.71a4.24,4.24,0,0,0,.16-1.8c0-.71,0-1.42,0-2.12,0-.36.1-.73-.16-1.07a.54.54,0,0,1,0-.45A9.89,9.89,0,0,0,434.21,331Z" transform="translate(-285.86 -141.83)"/><path class="cls-1" d="M500.93,260.21c.19-.21.29-.32.35-.4a15.2,15.2,0,0,1-.27-1.95c0-1.7,0-3.39,0-5.09,0-.37.16-.71,0-1.1a3.67,3.67,0,0,1,0-1.1c0-.4,0-.8,0-1.28h4.34c.26,0,.52-.06,1-.11-.07,0,0,.07.13.07l3.13,0c.61-.46,1.13,0,1.72.13.45-.29,1,0,1.55-.17a11.16,11.16,0,0,1-.16,2.79,1.69,1.69,0,0,0,.19,1,.72.72,0,0,1,0,.75c-.09.16,0,.44.08.75l-.29.19c0,.09-.09.3,0,.43a2.68,2.68,0,0,1,.17,1.25A3.67,3.67,0,0,0,513,258a.54.54,0,0,1,0,.45,6.43,6.43,0,0,0-.16,2.35,3.65,3.65,0,0,0,.17.69,5.27,5.27,0,0,1,0,.69l-2,.57c-.15,0-.32,0-.43.1a4.4,4.4,0,0,1-1.46.63,5.92,5.92,0,0,0-1.35.61c-.57.34-1.17.58-1.75.88a14,14,0,0,1-1.3.74,16.82,16.82,0,0,0-2.41,1.69c-.4.25-.79.52-1.27.83a9.42,9.42,0,0,1-.09-2.09,5.54,5.54,0,0,1,.08-2c.27-.72-.45-1.3-.09-2C501.27,262,501.3,260.13,500.93,260.21Z" transform="translate(-285.86 -141.83)"/><path class="cls-1" d="M416,141.83c.28.42.73.33,1.13.35a1.22,1.22,0,0,0,.88.75c.38.1.82.32.79.87.74.37.83,1.16,1.21,1.84a3.19,3.19,0,0,0,.25,1.42,1.3,1.3,0,0,1,0,.65c-.1.63-.24,1.26-.42,2.15-.23.27-.22.92-.55,1.46a17,17,0,0,1-1.08,1.45,6.56,6.56,0,0,1-2.61,1.52,3.6,3.6,0,0,1-1.22.26c-1.26.09-2.52.12-3.78.19a1.39,1.39,0,0,0-.32.12,1.63,1.63,0,0,1-.26-1.11c0-.47.15-1-.14-1.41.05-.23.19-.47.13-.65a1.85,1.85,0,0,1-.14-1c.09-.33-.28-.63,0-.95-.37-.62-.08-1.33-.3-2a6.28,6.28,0,0,1,0-1.89c-.17-.44-.6-.82-.2-1.35.06-.07,0-.26-.06-.4-.1-.61-.2-1.21-.32-1.89a8.35,8.35,0,0,0,.91,0c.52-.07,1.05-.17,1.57-.26,0,0,0-.06,0-.08Zm1.4,7.08a5.74,5.74,0,0,1,0-.72,5,5,0,0,0-1.63-3.54,1.19,1.19,0,0,0-.91-.38,1.31,1.31,0,0,1-.34,0l-1.21-.31c-.38.38-.91,0-1.33.26a4.32,4.32,0,0,0,.15,1.27,1.81,1.81,0,0,1,.11,1.21,1.36,1.36,0,0,0,.12,1.14,1.08,1.08,0,0,1,0,1.11c.49.86.24,1.8.32,2.75.13.19.27.42.4.62h1.52l1.33-.67A6.69,6.69,0,0,0,417.36,148.91Z" transform="translate(-285.86 -141.83)"/><path class="cls-1" d="M461.3,156.65c.24.24.48.46.82.81.84.22,1.33,1.16,2.16,1.7a11,11,0,0,0-1.93,2.6c-.17.31-.52.48-.58.92,0,.29-.53.44-.48.86-.58.22-.6.84-.91,1.25a4.35,4.35,0,0,1-.77.64,2.7,2.7,0,0,1-.39,1.11,4.84,4.84,0,0,1-.71,1,2.88,2.88,0,0,0-.91,1.4,2.67,2.67,0,0,1-.35.6,1.69,1.69,0,0,1-.95-.57,3.58,3.58,0,0,0-1.41-1.08c-.09,0-.15-.16-.27-.3a2.58,2.58,0,0,0,.78-.93c.19-.37.59-.63.78-1,.61-1.16,1.71-2,2.28-3.14.3-.64.85-1.11,1.23-1.94-.4.25-.64.39-.87.55-.7.47-1.45.85-2.1,1.38a3.12,3.12,0,0,1-.75.32c-.11.4-.57.57-1,.74a3.9,3.9,0,0,0-.57.34,13,13,0,0,0-2.34,1.65c-.64-.57-1.5-.8-2-1.61l.34-.3,0-.5a1.9,1.9,0,0,0,.69-1.48,1.73,1.73,0,0,1,.19-.45,2,2,0,0,0,.15-.38c.26-1.12,1-2.08,1.07-3.25.44-.5.39-1.23.81-1.74.07-.09,0-.26.06-.6-.74.89-1.3,1.67-2,2.35s-1.22,1.59-1.93,2.28-1.27,1.38-1.93,2.14c-.7-.62-1.72-.83-2.15-1.79a4,4,0,0,0,.54-.46c.46-.54.88-1.12,1.35-1.65.22-.25.53-.41.78-.65.52-.5,1-1,1.54-1.53.32-.32.65-.63,1-.93s.64-.55.95-.84.29-.35.44-.52.34-.51.58-.63c.77-.37,1-1.17,1.68-1.77l3,2.43c-.2.32-.42.67-.63,1-.09.15-.26.32-.23.44.1.54-.54.83-.39,1.36-.5.39-.43,1-.63,1.53s-.49,1.06-.74,1.6l.13.21-1,1.89.06.08c.16-.13.3-.26.46-.38s.34-.21.49-.33a13.25,13.25,0,0,1,2.41-1.56,7.93,7.93,0,0,0,1-.62l2.19-1.61C460.68,157.15,460.94,156.93,461.3,156.65Z" transform="translate(-285.86 -141.83)"/><path class="cls-1" d="M398.64,144.75a1.36,1.36,0,0,0,1.49,0,8.27,8.27,0,0,1,3.78,2.14c0,.43.56.72.84,1.18s.36,1.08.71,1.48c.07.71.14,1.39.22,2.07a13.17,13.17,0,0,1-.09,1.52,3,3,0,0,1-.52,1.39,1.3,1.3,0,0,0-.1.41,1,1,0,0,1-.51.82s-.14,0-.14.08c-.13.67-.79.85-1.18,1.3l-.5,0c-.35.22-.55.74-1.1.56l-.14.28c-.64.09-1.29-.12-1.8.15L398,158a1.41,1.41,0,0,0-.47-.25,4.15,4.15,0,0,1-2.59-1.89,9.87,9.87,0,0,1-.74-.84,16,16,0,0,0-.53-1.66,4.63,4.63,0,0,1-.43-2,7.1,7.1,0,0,1,.89-3.38,5,5,0,0,1,2.84-2.53A15.32,15.32,0,0,0,398.64,144.75Zm3.58,9.91a6.45,6.45,0,0,0,.66-3.67c-.53-.6-.7-1.4-1.21-2a3.4,3.4,0,0,0-1.68-1.37,17.15,17.15,0,0,0-1.8-.24,6.92,6.92,0,0,0-1.06.66,9.4,9.4,0,0,0-.8,1c.05.92-.35,1.74-.26,2.46a5.36,5.36,0,0,1,.51,1.19,3,3,0,0,0,.86,1.61,5.27,5.27,0,0,0,1.95,1.32A3.32,3.32,0,0,0,402.22,154.66Z" transform="translate(-285.86 -141.83)"/><path class="cls-1" d="M379.15,157.12c.67-.86.93-2,1.7-2.73,0,0,.17,0,.3,0,.24-.74,1-.89,1.56-1.16a12.87,12.87,0,0,1,1.84-.57,11.27,11.27,0,0,0,1.81.26c.61,0,1,.47,1.56.44.43.34.81.69,1.24,1s.8.45.82,1c.33.2.29.7.71.83a.49.49,0,0,1,.23.32,8,8,0,0,1,.63,2.78,2,2,0,0,0,.1.57,1,1,0,0,1,.06.33,5.51,5.51,0,0,1-1.43,3.44,4.24,4.24,0,0,0-.31.4c-.3.36-.52.84-1.1.86-.34.45-.93.52-1.34.89l-.46-.12-1.16.38-1.44-.15-.39-.3h-.68l-1.49-.94c-.23-.24-.42-.58-.7-.72a1.82,1.82,0,0,1-.8-.85,9.86,9.86,0,0,1-1.3-2.81c-.06-.34.13-.66-.1-1s0-.64.12-1A3.37,3.37,0,0,0,379.15,157.12Zm9.76,1.89c-.38-.41-.37-1-.77-1.46a14.51,14.51,0,0,0-1.25-1.23,15.19,15.19,0,0,0-1.4-.91l-1.75.08c-.6,0-.86.72-1.54.7-.12.43-.22.83-.36,1.36a2.37,2.37,0,0,0-.21.24c.29.37.09.68,0,1a4,4,0,0,1,.16.39,5.32,5.32,0,0,0,.71,1.68c.13.17.28.31.4.49a2.63,2.63,0,0,0,1.69,1.43c.3.38.78.26,1.16.42a.94.94,0,0,0,.88-.06,11.85,11.85,0,0,1,1.51-.48.69.69,0,0,0,.16-.2c.25-.53.5-1.05.71-1.59a1,1,0,0,0,.08-.73C388.86,159.75,389,159.39,388.91,159Z" transform="translate(-285.86 -141.83)"/><path class="cls-1" d="M372.06,162.77h.53c.63.4.78,1.23,1.58,1.51l-.42.48a10.77,10.77,0,0,0-1.5,1.66c-.09.15-.32.22-.48.32a4.74,4.74,0,0,0-.46,2.31,2.71,2.71,0,0,0,.36,1.36,7.55,7.55,0,0,0,1.38,1.5l.94.66,1.77.33a2.66,2.66,0,0,0,1.71-.35c.42-.29.83-.59,1.21-.87l.65-1.1c0-.06-.05-.13-.1-.15-1-.4-1.69-1.31-2.65-1.8-.29-.15-.57-.33-.92-.53a7.46,7.46,0,0,1,1-1.15c.42-.32.34-.92.81-1.17.45.31.92.6,1.37.93s.54.66.86.71c.48.08.56.51.88.71a19.87,19.87,0,0,1,1.79,1.4,5.16,5.16,0,0,1-.42.81,11.37,11.37,0,0,0-.85,1.62c-.41.83-1.25,1.32-1.52,2.2a4.55,4.55,0,0,0-1.59,1,1.06,1.06,0,0,1-.59.31,10.7,10.7,0,0,1-2,.31,6.62,6.62,0,0,1-2.14-.35,9,9,0,0,1-2.65-1.59,1.07,1.07,0,0,1-.18-.19,21.4,21.4,0,0,1-1.3-2.34,15.3,15.3,0,0,0-.43-1.61c-.07-.17.05-.43.11-.75a1,1,0,0,1,0-.85,8.93,8.93,0,0,0,.36-1.55c.3-.44.71-1,1.08-1.61a5.46,5.46,0,0,1,1.41-1.58A2.82,2.82,0,0,0,372.06,162.77Z" transform="translate(-285.86 -141.83)"/><path class="cls-1" d="M469.38,173.23l-2,1.42a25.84,25.84,0,0,0-2.36-3.38,8.84,8.84,0,0,0-2.13,1.65,1.63,1.63,0,0,1-.41.25l3.19,4.19c-.33.79-1.26.82-1.69,1.48-.11-.06-.24-.1-.29-.18-.44-.7-1.09-1.26-1.48-2a4,4,0,0,0-.92-1.18,1,1,0,0,1-.24-.32,6,6,0,0,0-1.24-1.66,6.08,6.08,0,0,1-.94-1.44c.89-.5,1.64-1.23,2.57-1.7a5.41,5.41,0,0,0,1.38-1,5.41,5.41,0,0,1,.8-.63l.55-.39a3.69,3.69,0,0,1,.62-.44,13.75,13.75,0,0,0,2-1.31c.39-.24.64-.69,1-1l1.19-.93c.33.31.85.51.88,1.12a.32.32,0,0,0,.11.13,13.35,13.35,0,0,1,1,1.34,29.53,29.53,0,0,1,2.08,3,4.34,4.34,0,0,0,.77.78,2.52,2.52,0,0,1-1,.72c-.37.13-.6.6-1.18.61-.52-.6-.8-1.4-1.3-2.07s-1-1.38-1.46-2.08L466.74,170c.28.35.57.72.84,1.09s.52.75.8,1.09S469,172.86,469.38,173.23Z" transform="translate(-285.86 -141.83)"/><path class="cls-1" d="M434,145.36l-1.71-.51a.91.91,0,0,0-.33,0,2.23,2.23,0,0,1-1.54-.31,4.93,4.93,0,0,1,.44-1,1,1,0,0,0,0-1.13,2.94,2.94,0,0,1,1.81.47,130,130,0,0,1,5.93,1.47l2.09.44v.59l-.63,1.7a6.71,6.71,0,0,1-2.57-.86h-.69a18,18,0,0,0-1.2,4.66l-.25.27.13.28A9.31,9.31,0,0,0,435,153c-.21.9-.4,1.8-.55,2.71a.84.84,0,0,1-.14.3l-1.46-.08-.37-.31h-.87a2.84,2.84,0,0,1,.26-1.88c.09-.23.12-.48.19-.72a4.5,4.5,0,0,1,.16-.48,3.16,3.16,0,0,0,.35-1.7l.33-.37c0-.89.54-1.66.59-2.59A13.67,13.67,0,0,1,434,145.36Z" transform="translate(-285.86 -141.83)"/><path class="cls-1" d="M442.61,159.45c-1-.22-1.69-1.06-2.72-1.09v-.55c.14-.2.4-.4.47-.65.3-1.06,1.14-1.89,1.28-3a3.94,3.94,0,0,0,1-2,1.59,1.59,0,0,1,.54-1.05,7.68,7.68,0,0,1,.46-1.13,7.37,7.37,0,0,0,.69-1.61,4.38,4.38,0,0,1,.41-.91,2.55,2.55,0,0,0,.25-.78c.53.48,1.38.2,1.79.91h.43l.51.55c-.3.24-.29.64-.45.94-.31.59-.54,1.23-.88,1.8a12.49,12.49,0,0,0-1.37,2.88,10.47,10.47,0,0,1-.86,1.91c-.18.34-.32.7-.48,1.05l-.32.69c0,.07-.17.14-.16.19C443.35,158.31,442.63,158.73,442.61,159.45Z" transform="translate(-285.86 -141.83)"/><path class="cls-1" d="M387,189c7.35-15.64,27.1-27,39.12-20.25,10,5.66,4.84,18,1.81,26.48-2.45,6.81-2.14,14.33,8.54,11.33,8.41-2.37,14.46,2.11,15.17,8.54,1,9.46-10.81,19.08-10.81,19.08s5.4-16-12.84-11.2c-18.4,4.82-25.18,9-31.17,3-9.42-9.4,10-32.18,3.75-38.92C395.88,182,387,189,387,189Z" transform="translate(-285.86 -141.83)"/><path class="cls-1" d="M443.39,187.13c.45-.06.91-.12,1.36-.2.18,0,.34-.15.52-.17a8,8,0,0,1,.85,0l.29.51-1.89.49c-.21.39-.38.72-.54,1,0,.51,0,1-.07,1.52,0,0-.07.1-.1.13.19.55.56,1,.16,1.66a.54.54,0,0,0,0,.46c.42.77,0,1.43-.28,2.1-.16.39-.47.72-.66,1.1a2.11,2.11,0,0,1-1,1,1.81,1.81,0,0,0,1.2,0,.57.57,0,0,1,.35-.07,7.26,7.26,0,0,1,2.79.9l.34-.44-1.19-1.56-.36-.93H445c.09-.7.18-1.4.26-2.07a8.7,8.7,0,0,1,1.61-1.32c.59-.37,1.14-.84,1.72-1.26,1-.75,2-1.51,3-2.29a11.87,11.87,0,0,0,1-.91c.39.31.65.74,1.2.85.26.06.44.44.61.62l1.38.09.57-.28.39.51-1.38,2.26c-.41.3-.75,0-1.07-.12a7.26,7.26,0,0,1-.94-.56,2.84,2.84,0,0,0,.1,1.91c-.17.33-.37.71,0,1.08-.13.34-.32.68,0,1a2,2,0,0,0-.18,1.18v2.4h1.4l1.89-1c.14.18.26.31.34.42a2.25,2.25,0,0,1-.09.26c-.35.59-1.08.67-1.56,1.13a20.83,20.83,0,0,1-2.14,1.58,10.14,10.14,0,0,1-3-.84,9.37,9.37,0,0,1-2.77-1.71c-.74.73-.6,2-1.63,2.49-1.14-.12-2.16-.93-3.37-.92-.08-.13-.13-.24-.2-.35-.06.12-.12.22-.21.38l-.65-.16c-.77.3-1.67,0-2.51.16a10,10,0,0,0-3.44.87c-.16.1-.41,0-.66.06v-.7a5.49,5.49,0,0,0,4-2.67l-.53-1-.81-.44h-.83l1-1c.45-.29.9,0,1.36.27.21-.9.05-1.17-1-1.79l-1.48.23-.2-.22c0-.36.83-1.12,1.53-1.52l1.58.19c.6-.73.36-1.83,1-2.61-1.1.53-2.16-.14-3.31,0l-1.16,1.57a.56.56,0,0,1-.18-.73,5.31,5.31,0,0,1,2.23-2.85,1.45,1.45,0,0,0,.29-.27h.9l1.2.61h1.68l1.25-.63c.06.19.13.38.2.57a1.83,1.83,0,0,0-.49.22c-.43.37-.83.78-1.17,1.1-.16.71-.3,1.3-.41,1.8a3.93,3.93,0,0,1,.1,2.29c-.2.73-.07,1.46-.26,2.2a16.12,16.12,0,0,0-.63,2.07,1.28,1.28,0,0,0,1-1.08,3.34,3.34,0,0,1,.31-.85A2.9,2.9,0,0,0,442,193c-.1-.46.1-.93-.15-1.36a.31.31,0,0,1,0-.28,3.2,3.2,0,0,0,.17-1.65,2.22,2.22,0,0,1,.44-1.37C442.8,187.92,443.09,187.52,443.39,187.13Zm9,10.42c0-.05.08-.1.08-.16a12.52,12.52,0,0,1,.19-3.17.39.39,0,0,0,0-.35c-.21-.26-.13-.54-.14-.82,0-.63,0-1.26,0-1.89,0-.37.08-.72.13-1.14-.51-.28-.91-.87-1.66-.91v1.07c0,1.1.07,2.21,0,3.31a1.24,1.24,0,0,0,.53,1.33,6.1,6.1,0,0,1-.64.29c-.7.23-1.5.15-2.11.71A7.38,7.38,0,0,0,452.42,197.55Zm-4-6.48a3.58,3.58,0,0,0-1.4,1.57v1.15l.44.86.75.5a2,2,0,0,0,.31-.57,1.69,1.69,0,0,1,.2-.8,7.19,7.19,0,0,1-.19-2.4A1.17,1.17,0,0,0,448.4,191.07Z" transform="translate(-285.86 -141.83)"/><path class="cls-1" d="M480.27,223.66c-.11-.09-.23-.26-.37-.29a3.92,3.92,0,0,1-2.3-1.85,7.72,7.72,0,0,1-1.07-1.79,5,5,0,0,1-.36-1.48,2.75,2.75,0,0,0-.15-.65,2.85,2.85,0,0,0,.15-.67,11.7,11.7,0,0,1,.69-3.31,1.57,1.57,0,0,1,.27-.49c.49-.62,1-1.24,1.51-1.83a4.3,4.3,0,0,1,.75-.56c.45-.17.86-.35,1.29-.5l1.29-.42c.51.44,1.12-.17,1.73,0,.35.11.64.38,1.07.34a1.43,1.43,0,0,1,.59.22l1.15.54c.14.41.56.6,1,.78.07.17.09.41.22.5a4.5,4.5,0,0,1,1,1.39,2.19,2.19,0,0,1,.35,1,21.35,21.35,0,0,1,.18,3.29c0,.38-.15.74-.26,1.27a7.19,7.19,0,0,1-4.7,4.64c-.32.09-.69-.07-1,.18-.1.08-.32,0-.48,0s-.26-.13-.29-.1c-.4.42-.77-.19-1.16,0C481,223.58,480.68,223.75,480.27,223.66Zm4-2.59c.19-.18.43-.42.66-.66a3.57,3.57,0,0,0,1.16-2.84c0-.23.11-.46.11-.69s-.12-.48-.11-.72a2.54,2.54,0,0,0-.31-1.24c-.16-.34-.34-.67-.51-1s-.15-.7-.54-.74-.42-.46-.76-.52-.82-.25-1.24-.32a1.43,1.43,0,0,0-.7.11,3.3,3.3,0,0,0-1.43.92,1.21,1.21,0,0,1-.29.18l-.91,1.67c.13.63-.51,1.34,0,2l-.18.48.63,1.81c.46.35.61,1.29,1.43,1.37l.37.45c.46,0,.89-.09,1.22.16Z" transform="translate(-285.86 -141.83)"/><path class="cls-1" d="M469.33,215.27a35.18,35.18,0,0,0-.18-5c.52-.26,1,0,1.51-.07a9.88,9.88,0,0,1,1.64,0,5.37,5.37,0,0,1-.13,2.22,2.85,2.85,0,0,1,0,1.89,1.63,1.63,0,0,0,0,.72,2,2,0,0,0,.1.47c.08.3-.15.58,0,.92a3,3,0,0,1,0,1.08c0,.32.12.67-.13,1,.26.28,0,.54,0,.82a1,1,0,0,0,0,.58,3.82,3.82,0,0,1,.15,1.54,3.33,3.33,0,0,0,.15,1.21,2.55,2.55,0,0,1,0,.92c-.58.15-1.19-.08-1.71.22-.5-.33-1.08-.05-1.61-.2a5.87,5.87,0,0,0,0-2.77.62.62,0,0,1,0-.33,9.27,9.27,0,0,0,.18-2.47,2.32,2.32,0,0,0-.25-.22c-.07,0-.13,0-.17,0s-.19.13-.29.14a3,3,0,0,1-1.08,0c-.36-.11-.67.09-1,0a3.46,3.46,0,0,0-1.06-.06c-.32.05-.7-.07-1,.28.36.36,0,.8.1,1.23a8.38,8.38,0,0,1,0,1.42c0,.46-.14.94.13,1.38-.29.42,0,.92-.17,1.36l-.53.27a1.55,1.55,0,0,0-1.3-.05,4.4,4.4,0,0,1-1.32,0c.11-.46.33-.91,0-1.32a.2.2,0,0,1,0-.17,6.79,6.79,0,0,0,.16-2.29c0-.35-.08-.71.15-1a.57.57,0,0,0,0-.48,6,6,0,0,1-.15-2.22c0-.71,0-1.43.06-2.15,0-.23-.06-.45-.07-.68,0-.53,0-1.06,0-1.59a5.63,5.63,0,0,0-.11-.63c0-.24.11-.58.18-1h2.86c.18.47.43,1,.09,1.49.11.58-.18,1.15,0,1.75a3.21,3.21,0,0,1-.18,1.7l.4.26c1,0,2,0,3.07,0,.07,0,.13.09.11.07Z" transform="translate(-285.86 -141.83)"/><path class="cls-1" d="M496.11,220a5.08,5.08,0,0,0,.64.9,6.09,6.09,0,0,0,1,.62c.23,0,.53.08.84.08a6.56,6.56,0,0,0,.84-.09c.79-.21,1-1,1.44-1.37a9.27,9.27,0,0,1,.23-1.5,5.22,5.22,0,0,0,.14-1.88,3.22,3.22,0,0,0-.14-1.71s.06-.14.08-.22a1.24,1.24,0,0,0,0-1c0-.05-.06-.11-.05-.15a4.81,4.81,0,0,0,0-1.65c0-.58,0-1.16,0-1.74a5.72,5.72,0,0,1,2.54.06l.27-.15s.05,0,.11,0c.07.19.14.38.21.59l-.25.13a7.39,7.39,0,0,1,0,2.89,6.59,6.59,0,0,1,.11.88c0,.38.12.77-.12,1.12.26.32.1.7.13,1.05a8.5,8.5,0,0,1-.65,3.81c-.12.21-.14.46-.24.68a4.14,4.14,0,0,1-1.81,2,6.5,6.5,0,0,0-.57.35l-2.5.31c-.36-.06-.85-.16-1.35-.23-.06,0-.13.08-.22.14a9.91,9.91,0,0,1-1.37-.62,13.61,13.61,0,0,1-1.59-1.27.73.73,0,0,1-.22-.58c0-.33-.22-.44-.35-.66v-.89c-.22-.44-.5-.84-.26-1.39.09-.19-.08-.49-.14-.75s-.13-.32-.1-.46c.09-.39.32-.77,0-1.16.25-.35.11-.75.13-1.12a4,4,0,0,0-.12-.72c.35-.37-.11-.87,0-1.3a6.54,6.54,0,0,0,0-1.33,6,6,0,0,1,0-1.4c.05,0,.1-.08.14-.07,1,.28,1.94-.19,3,0a3.67,3.67,0,0,1,.05.51c0,.7,0,1.4,0,2.09a1.45,1.45,0,0,1-.13.81.73.73,0,0,0,0,.63.64.64,0,0,1,0,.69c-.06.11.12.34.11.51s-.17.48-.13.7a1.61,1.61,0,0,1,0,.58,1,1,0,0,0,.12.88.27.27,0,0,1,0,.16C496,218.45,496.05,219.15,496.11,220Z" transform="translate(-285.86 -141.83)"/><path class="cls-1" d="M524.58,212.38l-.11.27-.49-.17a.68.68,0,0,0-.09.16c0,.14.12.22.05.43a2.8,2.8,0,0,0,0,1c0,.46.07.93.1,1.45a2.16,2.16,0,0,0,1.36-.16,1.52,1.52,0,0,0,1.06.06,3,3,0,0,1,1.91.22c.06,0,.1.13.18.22l-.17.53c.27.44.08.94.17,1.46-.8.16-1.55-.44-2.28,0l-2.27-.16a4.25,4.25,0,0,1,0,1.19c-.11.39.1.72,0,1.09a7.48,7.48,0,0,0,0,1.16,8.31,8.31,0,0,0,2.54,0c.13,0,.29.1.43.09s.49-.14.68-.07a.8.8,0,0,0,.61,0c.22-.07.49,0,.74,0s.49-.07.73-.07c.08,0,.17.12.28.21a6.91,6.91,0,0,1-.36,2.21l-.38.21a5.79,5.79,0,0,0-.74-.13h-3a5.3,5.3,0,0,0-.55.1,2.36,2.36,0,0,1-.46,0c-.13,0-.28-.11-.39-.07a3.36,3.36,0,0,1-2.08,0,2.93,2.93,0,0,0-1,.14,1.8,1.8,0,0,1-.05-.46,8.12,8.12,0,0,1,.14-2.46c-.35-.61.15-1.21,0-1.82,0-.1-.09-.2-.1-.3a1,1,0,0,1,0-.46c.22-.39-.06-.74-.05-1.09s.25-.71.06-1.1c0-.07-.1-.16-.08-.22.29-.72-.17-1.44,0-2.16,0-.15.06-.31.09-.47s.14-.47.06-.64a9.21,9.21,0,0,1-.17-2.37c.57,0,1.09,0,1.61,0a3.64,3.64,0,0,1,1.51.11,10,10,0,0,1,1.06-.1c.34,0,.68.07,1,.07s.76-.06,1.14-.08.73,0,1.09,0,.72-.14,1.07.18a1.52,1.52,0,0,0,0,1.27c-.08.38-.17.77-.26,1.17a4.75,4.75,0,0,0-1.39-.13,15.36,15.36,0,0,1-2.25,0A5.83,5.83,0,0,1,524.58,212.38Z" transform="translate(-285.86 -141.83)"/><path class="cls-1" d="M516.7,210.32c-.31.93-.14,1.86-.63,2.69l-1-.48a4.53,4.53,0,0,0-1.11-.12,1.29,1.29,0,0,1-.89-.09c-.07,0-.21,0-.24,0-.22.27-.44-.07-.66,0s-.59.24-.84.34a1.54,1.54,0,0,0-.37,1.36,2.41,2.41,0,0,0,1.27.81,3.08,3.08,0,0,1,1.21.57c.3.29.68.14,1,.38s.5.51.9.52c.11,0,.22.15.32.24s.23.25.36.35a2.91,2.91,0,0,1,1.19,2.39,4.64,4.64,0,0,1-.33,2.26,2.64,2.64,0,0,0-.08.48c-.17.15-.45.38-.71.63a5,5,0,0,1-2.13,1c-.47.13-1,0-1.42.29a.42.42,0,0,1-.33,0,6.09,6.09,0,0,0-2.29-.15,10.79,10.79,0,0,1-2.12-.44c-.05,0-.08-.08-.12-.12a6,6,0,0,0,.45-2.49l1.6.5c.57.06,1.25.16,1.93.19a3.66,3.66,0,0,0,2.66-.77c0-.3-.19-.61.06-.89a4.54,4.54,0,0,0-1.21-1,8.6,8.6,0,0,0-1.27-.68,6.41,6.41,0,0,0-.9-.33,3.29,3.29,0,0,1-1-.53,7.89,7.89,0,0,1-.65-.49,3.08,3.08,0,0,1-1.11-1.49,4.48,4.48,0,0,1-.18-2.39,3.86,3.86,0,0,1,1.09-1.86,4.64,4.64,0,0,1,1.66-.74c.05,0,.11,0,.16,0,.33-.12.61-.45,1-.31s.66-.08,1,0,.73,0,1.09,0,.86.1,1.29.16Z" transform="translate(-285.86 -141.83)"/><path class="cls-1" d="M334,218.8l-.23.09c.34.43.05.84-.18,1.13a7.5,7.5,0,0,0-.69,1.19,1.86,1.86,0,0,1-.8.89,4.13,4.13,0,0,0-1,.82c-.45.44-1.07.49-1.59.77a3.44,3.44,0,0,1-1.53.18,2.65,2.65,0,0,0-.87.15,5.3,5.3,0,0,0-1.15-.31,4.17,4.17,0,0,1-1.92-.8,6.33,6.33,0,0,1-2.12-2.24,4.77,4.77,0,0,1-.56-1.57c-.1-.5-.19-1-.29-1.49s.1-.69.12-1a7,7,0,0,1,.35-2,4.69,4.69,0,0,1,.9-1.78,2.39,2.39,0,0,0,.32-.62l0,0,2.06-1.68a13.8,13.8,0,0,0,2.11-.64.56.56,0,0,1,.47,0,1.66,1.66,0,0,0,1.13.14,4.86,4.86,0,0,1,3,1c.46.34.74.85,1.24,1.13a.59.59,0,0,1,.23.24,9.23,9.23,0,0,1,1.08,2.83,12.71,12.71,0,0,1,.13,2A15.49,15.49,0,0,1,334,218.8Zm-4.83,2.36a5.86,5.86,0,0,1,.49-.5,5.2,5.2,0,0,0,1.56-3.55.52.52,0,0,0,0-.33c-.29-.38-.09-.8-.16-1.17l.34-.4-.45-.1a1.86,1.86,0,0,0-.56-1.06c-.27-.27-.47-.61-.74-.88a2.1,2.1,0,0,0-.84-.63,4.18,4.18,0,0,0-1.68-.17,3,3,0,0,0-1.35.66,4.9,4.9,0,0,0-1.56,3.46,9.49,9.49,0,0,0,.15,1.28,2.88,2.88,0,0,0,.47,1.53,1.7,1.7,0,0,0,.42.67c.24.18.36.44.58.64a4.81,4.81,0,0,0,1.57.84Z" transform="translate(-285.86 -141.83)"/><path class="cls-1" d="M374.57,223.44c.09-.46-.15-.95.17-1.37-.25-.43.29-1-.2-1.36.48-.51,0-1.08.16-1.62a11.13,11.13,0,0,0,.05-1.83v-3.51c0-.62,0-1.23,0-1.85s-.06-1.12-.1-1.75l.43.07c.08,0,.16.09.22.07a7.11,7.11,0,0,1,3,0c.06,0,.14-.07.2-.08a2.32,2.32,0,0,1,1.14.06.9.9,0,0,0,.64.06,12.78,12.78,0,0,1,2.74-.17c.21.43-.13.82,0,1.08a.94.94,0,0,1-.05,1l.23.47a3.83,3.83,0,0,1-1.72-.11,3.71,3.71,0,0,1-2,0c-.1,0-.24-.1-.31-.06a1,1,0,0,1-.71.15,6,6,0,0,1-.72-.19,1.77,1.77,0,0,0-.06,1c.09.35-.07.66,0,1a7.11,7.11,0,0,1,0,1,13.4,13.4,0,0,0,2.31-.11c.72.38,1.44-.35,2.19,0a20.33,20.33,0,0,0,.11,2.25,1.44,1.44,0,0,1-.42.15c-.28,0-.59-.13-.84-.05s-.58-.07-.86-.09a3,3,0,0,0-1.38.09,2.63,2.63,0,0,1-.87.08,3.55,3.55,0,0,0-.09,2.43,1,1,0,0,1,0,.49,4,4,0,0,1-.18.51c.68.05,1.32-.35,1.86,0l1-.15a8.14,8.14,0,0,1,.85-.08c.27,0,.58.15.8.06a3.82,3.82,0,0,1,1.38-.14l.11,0c.28.81-.31,1.59,0,2.49h-.74a8.85,8.85,0,0,1-1.15.05,5.23,5.23,0,0,0-1,.1,5.76,5.76,0,0,1-1.54-.12,2.45,2.45,0,0,0-1.62.11c-.05,0-.15,0-.22,0-.41,0-.89-.21-1.22-.07A1.84,1.84,0,0,1,374.57,223.44Z" transform="translate(-285.86 -141.83)"/><path class="cls-1" d="M362.43,223.73l-.52-.26c0-.05-.05-.1,0-.15,0-.29-.11-.61.13-.87a.9.9,0,0,1-.12-.87,4.81,4.81,0,0,0,.15-1.46c0-.44-.1-.87,0-1.33a7.47,7.47,0,0,0,0-1.34V216c0-.44,0-.89,0-1.34s.14-.77-.13-1.13c0-.06.13-.24.13-.35a5.82,5.82,0,0,0-.12-1.81,1.22,1.22,0,0,1,.36-1.26h1.28a13.43,13.43,0,0,0,1.42,0c.44,0,.84.13,1.26.09s.88-.07,1.32-.08h2.82a3.66,3.66,0,0,1-.1,1.61c-.09.21,0,.52.08.84a2,2,0,0,1-1.12,0,1,1,0,0,0-.56-.07,3,3,0,0,1-1.75,0,10.32,10.32,0,0,0-2,0v3c.38-.08.7.1,1.08,0a5,5,0,0,1,1.09,0c.39,0,.78,0,1.17,0s.69-.06,1.11-.11a4.91,4.91,0,0,1,0,1.16c0,.41,0,.82,0,1.31l-.5-.1-.31-.08c-.61-.12-1.18.27-1.84,0a6.07,6.07,0,0,0-1.87,0,7.45,7.45,0,0,0,.15,2.17c.08.19,0,.47-.09.71l-.07.63h1.53a10.71,10.71,0,0,1,1.5,0c.45.06.88-.32,1.32,0,.43-.26.92,0,1.42-.17a1,1,0,0,1,.16,1.09,1.37,1.37,0,0,0,.11,1.28c-.19.45-.58.32-.92.29-.13,0-.29-.17-.37-.13-.48.28-.93.06-1.41,0a1.7,1.7,0,0,0-1.06.09,1.38,1.38,0,0,1-.81,0,4.06,4.06,0,0,0-2.24,0,.74.74,0,0,1-.42,0A1.14,1.14,0,0,0,362.43,223.73Z" transform="translate(-285.86 -141.83)"/><path class="cls-1" d="M317.62,210.17a3.08,3.08,0,0,1,.24.26l-.58,2.56-1.44-.42c-.07,0-.15-.09-.22-.08a6.29,6.29,0,0,1-1.14.07,2.32,2.32,0,0,0-1.1.23,4.45,4.45,0,0,0-.94.64,3.38,3.38,0,0,0-1.16,1.85c-.15.51-.11,1.06-.29,1.57a12,12,0,0,0,.86,2.75c.49.31.83.8,1.35,1.1a10.6,10.6,0,0,0,1.56.63.48.48,0,0,0,.24,0,13.59,13.59,0,0,1,1.54-.15,3.73,3.73,0,0,0,1.52-.37l.29.27c-.33.78-.06,1.59-.21,2.42h-.68l-.41.36c-.46-.44-.94.08-1.45,0a13.89,13.89,0,0,0-1.58,0c-.16,0-.3-.11-.46-.14l-1.36-.26-1.13-.57a2.1,2.1,0,0,1-.46-.32l-1.31-1.3a1.29,1.29,0,0,1-.23-.24,7.56,7.56,0,0,1-1.09-3.26,6.3,6.3,0,0,1,.31-2.58,2.34,2.34,0,0,0,0-.75c.08-.08.19-.15.22-.25a7.65,7.65,0,0,1,2.06-2.72,2.54,2.54,0,0,1,1.54-.84,1.36,1.36,0,0,0,.73-.33c.22-.2.43,0,.64-.07a5.35,5.35,0,0,0,.8-.14,6.19,6.19,0,0,1,2.27,0A8.08,8.08,0,0,0,317.62,210.17Z" transform="translate(-285.86 -141.83)"/><path class="cls-1" d="M340.88,216h4.54c.1.27-.24.54,0,.83s-.13.45,0,.73a.56.56,0,0,1-.29.77,6.67,6.67,0,0,1-2.2-.15.29.29,0,0,0-.24,0,1.71,1.71,0,0,1-1.48,0c-.24.38-.42.7-.15,1.15a1.09,1.09,0,0,1,0,.81.76.76,0,0,0,0,.61c.07.16-.07.4-.08.6a1.33,1.33,0,0,0,0,.66,4.41,4.41,0,0,1,.17,1.51,3.64,3.64,0,0,0-.51,0c-.16,0-.31.08-.51.13-.63-.29-1.36,0-2.12-.16,0-.13-.11-.31-.05-.43a2.72,2.72,0,0,0,.15-1.29c0-1,0-1.95,0-2.93a8.38,8.38,0,0,0,0-1.33,8.34,8.34,0,0,1,0-1.5v-5.83a4.89,4.89,0,0,1,.55-.05c1,0,2,0,2.92,0,.38,0,.76-.12,1.14.11.13.08.42-.16.6-.11.59.18,1.22-.26,1.78.15.35-.37.81.13,1.2-.15.08-.05.29.07.48.12-.34.78.12,1.61-.4,2.38a11.6,11.6,0,0,1-2.28,0,28.59,28.59,0,0,0-3.1-.16,2.19,2.19,0,0,0,.05,1.22.48.48,0,0,1,0,.29c0,.1-.09.21-.08.31a5.25,5.25,0,0,1,.14.87A4,4,0,0,1,340.88,216Z" transform="translate(-285.86 -141.83)"/><path class="cls-1" d="M352.9,218.51a4.29,4.29,0,0,1,.09.61c0,.75,0,1.51,0,2.26a2.1,2.1,0,0,0,.14,1.13c.09.16,0,.43,0,.64a5.62,5.62,0,0,1-.19.53,2.52,2.52,0,0,0-1.67,0,1.28,1.28,0,0,1-1.26-.23c0-.65,0-1.31,0-2,0-.43.26-.84.17-1.29,0-.24.05-.48-.13-.72a.7.7,0,0,1,0-.48,3.22,3.22,0,0,0,0-1.84,1,1,0,0,1,0-.29,3.53,3.53,0,0,0,0-.46,4.25,4.25,0,0,1-.08-1.22,3.54,3.54,0,0,0,0-2.16c0-.1,0-.23,0-.33-.1-.39.13-.76,0-1.17a5.72,5.72,0,0,1,0-1.32c.55,0,1.11,0,1.65,0s1,.18,1.58,0a7.35,7.35,0,0,1,1.7,0l.14.29a5,5,0,0,1,2.21-.29c.11,0,.26,0,.32,0,.35.28.67.07,1.1-.08a10,10,0,0,0-.18,2.47,1.77,1.77,0,0,1-1.37-.08,2.19,2.19,0,0,1-1.72,0c-.05,0-.13,0-.16,0-.45.35-.89,0-1.33,0a1.44,1.44,0,0,0-1.1.28c.06.28.11.56.17.85s-.15.58,0,.92a2.75,2.75,0,0,1,0,.91c0,.24-.07.51.31.72l1.93-.16,2-.13c.21.43-.12,1,.19,1.39l-.19,1.08a5.1,5.1,0,0,1-1.78-.15,3,3,0,0,0-1.57.16l-.62-.22Z" transform="translate(-285.86 -141.83)"/><path class="cls-1" d="M463.27,393.11a1.81,1.81,0,0,0-.12-1.4,15.24,15.24,0,0,0-1.1-1.72c-.16-.21-.31-.42-.46-.64a3.8,3.8,0,0,0-4.57-1.5,3.87,3.87,0,0,0-2.95,4c.05.53.13,1.07.21,1.59,0,.24.07.49.11.73s.11.59.18.88a3,3,0,0,1,.11,1.72,3.93,3.93,0,0,1-1.43,1.32c-.26.18-.53.36-.77.55a1.32,1.32,0,0,1-.2.12,1,1,0,0,0-.36.27c-.16.22-.36.44-.54.65a4.17,4.17,0,0,0-1.11,1.79,3.47,3.47,0,0,0,.89,3.17,2.37,2.37,0,0,0,1.58.57,3.48,3.48,0,0,0,1.08-.18c2.09-.44,2.43-1,3-3.09a6.06,6.06,0,0,0,0-2.85c0-.19-.07-.38-.1-.57a1.33,1.33,0,0,1,.71-1.55c1.5-.85,3-1.67,4.5-2.42A2.62,2.62,0,0,0,463.27,393.11Zm-11.14,8.29a17.57,17.57,0,0,1,2.11-1.93l.71-.58a.37.37,0,0,1,.11.09,4.16,4.16,0,0,1,.12.72,2.17,2.17,0,0,0,0,.25.13.13,0,0,0,0,.06l.06.34a5.68,5.68,0,0,1,.09.69,2.46,2.46,0,0,1-.76,1.95,2.29,2.29,0,0,1-1.87.56c-.27,0-.54-.32-.71-.74A1.48,1.48,0,0,1,452.13,401.4Zm4.2-5.71a.41.41,0,0,1,0-.16v0c-.07-.44-.13-.88-.19-1.33l-.08-.55h0l-.24-1.68a2.08,2.08,0,0,1,1-2.18,2.73,2.73,0,0,1,1.45-.45,2,2,0,0,1,1.13.34,5,5,0,0,1,1.73,2.5.66.66,0,0,1-.16.5c-.78.53-1.58,1.06-2.36,1.57l-2.1,1.4A.55.55,0,0,1,456.33,395.69Z" transform="translate(-285.86 -141.83)"/><path class="cls-1" d="M453.09,391.68c.26-.43.39-1.41.05-1.76-.13-.13-.26-.27-.38-.41-.78-.85-1.66-1.81-3.13-1.35a5.77,5.77,0,0,0-3.47,1.15l-.46.3a4.67,4.67,0,0,0-2.3,2.59,3.91,3.91,0,0,1-.18.51,1.77,1.77,0,0,0-.21,1.16,2.53,2.53,0,0,0,1.36,1.23,3.24,3.24,0,0,0,1.25.17h.7a.32.32,0,0,1-.05.15c-.62,1.36-1.68,3.66-2.16,4.69l-.1.2c-.51,1.11-1.05,2.25-1.67,3.31a1.09,1.09,0,0,1-.85.64,1.08,1.08,0,0,1-.89-.55l-.07-.11a4,4,0,0,1-1.08-3,1.14,1.14,0,0,0-.11-1c-.19-.23-.54-.27-1-.27a1.22,1.22,0,0,0-1,.32,1,1,0,0,0,0,.95,8.63,8.63,0,0,0,3,5,2.19,2.19,0,0,0,1.08.3h.2a2.24,2.24,0,0,0,2-1.58c.7-1.53,1.69-3.55,2.56-5.33.28-.56.54-1.09.77-1.57.11-.23.22-.47.32-.71a4.32,4.32,0,0,1,1.5-2.16l.58-.39a6.7,6.7,0,0,1,1.89-1A3,3,0,0,0,453.09,391.68Zm-2.54-1.44a1.42,1.42,0,0,1-.24.4l-.18.18c-.66.68-1.35,1.37-2.07,2a3.16,3.16,0,0,1-2.39.8.71.71,0,0,1-.63-.37.67.67,0,0,1,.13-.67,6.06,6.06,0,0,1,4.13-2.71l.21,0a.72.72,0,0,1,.35,0,3.52,3.52,0,0,1,.62.3l.1.06Z" transform="translate(-285.86 -141.83)"/><path class="cls-1" d="M470.15,396.78c1.19-2.37,2.43-4.82,3.7-7.21a5,5,0,0,1,.6-.83A6.1,6.1,0,0,0,475,388a1.24,1.24,0,0,0,.07-1.28,1.19,1.19,0,0,0-1.14-.5l-.07,0-.14.07a4.93,4.93,0,0,0-.76.41c-.34.24-.66.51-1,.77l-.4.32L470.12,389c-1.14.9-2.31,1.83-3.43,2.78-.94.79-1.87,1.74-2.69,2.58-.41.42-.79.82-1.13,1.14-1.56,1.5-1.57,2.55-1.35,2.9l0,.08c.23.4.55.94,2.46.79a8.34,8.34,0,0,0,1-.15,3.6,3.6,0,0,1,1.95,0c.1,0,.37.13.4.22s0,.14-.13.37c-.64,1.14-1.21,2.16-1.75,3.22-.08.17-.37,1-.06,1.21a1.93,1.93,0,0,0,.95.22l.32,0c.29,0,.56-.45.66-.67.43-.93.83-1.86,1.19-2.75a4.41,4.41,0,0,0,.2-.71,2.1,2.1,0,0,1,.41-1,.72.72,0,0,1,.64-.29c.12,0,.26,0,.46,0l.9-.07c.46,0,.89,0,1.08-.09.42-.08.7-.12.92-.14a3.63,3.63,0,0,0,1.17-.32c.22-.1.34-.54.35-.74s-.18-.35-.29-.46-.23-.21-.36-.2a6.84,6.84,0,0,0-1.27.13,4.06,4.06,0,0,1-1,.08,3.51,3.51,0,0,0-1.3.14.48.48,0,0,1-.37-.05.54.54,0,0,1,0-.35Zm1.45-6.9a.46.46,0,0,1-.09.14,1.1,1.1,0,0,0-.14.21c-.25.56-.51,1.13-.77,1.69-.73,1.61-1.49,3.28-2.16,4.95-.27.68-.61.68-.87.6a4.48,4.48,0,0,0-1.65.06,3,3,0,0,1-1.81,0,.54.54,0,0,1-.27-.41c0-.55.78-1.32,1.17-1.69l.15-.13.88-.86c.9-.87,1.82-1.78,2.78-2.61a20.11,20.11,0,0,1,1.9-1.39l.85-.59h0Z" transform="translate(-285.86 -141.83)"/><path class="cls-1" d="M395.83,397.05c-.58-.2-1.19.21-1.56,1.05s-.39,1.64.12,1.93a1.09,1.09,0,0,0,.51.14.73.73,0,0,0,.25,0c.5-.17.82-.8,1.09-1.38a1.49,1.49,0,0,0,.18-1.21A.93.93,0,0,0,395.83,397.05Z" transform="translate(-285.86 -141.83)"/><path class="cls-1" d="M423.33,402.43a4.44,4.44,0,0,0-3.11,1.07,10.89,10.89,0,0,1-2.07,1.36c-.15.07-.29.15-.43.23a3.19,3.19,0,0,1-1.1.3h-.05l-.14-.06a.36.36,0,0,1,.08-.09,12,12,0,0,0,2.91-2.62c.27-.3.53-.6.81-.89a5.68,5.68,0,0,0,1.11-1.69,1.78,1.78,0,0,0-.23-1.32c-.33-.56-.83-.37-1.28-.2l-.06,0c-3,1.09-5.22,3.2-7,6.65a1,1,0,0,1-.45.41,5.37,5.37,0,0,1-1.17.34,2.33,2.33,0,0,1-2.09-.52c-.41-.41-.25-1,.14-1.72a9.24,9.24,0,0,1,2.57-2.84.87.87,0,0,1,.63-.27.71.71,0,0,1,.41.39,1.37,1.37,0,0,0,1,.65.9.9,0,0,0,1.18-1,1.77,1.77,0,0,0-.43-1.27,2.5,2.5,0,0,0-3.15-.29,7,7,0,0,0-2.52,2.5c-.12.17-.23.36-.34.54a2.76,2.76,0,0,1-1,1.18c-.93.49-1.83,1-2.83,1.61a.45.45,0,0,1-.15.07s0-.06,0-.12c.15-.44.33-.9.5-1.33s.27-.68.4-1l.05-.16a4.14,4.14,0,0,0,.33-1.31.78.78,0,0,0-.32-.71,1.15,1.15,0,0,0-1.09,0A6.24,6.24,0,0,0,402,402l0,.05a.21.21,0,0,1,0-.06l-.11-.15c-.39-.53-.72-.87-1.11-.9s-.75.24-1.2.69-.86.87-1.4,1.45a14.06,14.06,0,0,1-4,2.86,1.54,1.54,0,0,1-.71.14,1.36,1.36,0,0,1-.16-1,6.67,6.67,0,0,1,.95-1.6.91.91,0,0,0-.09-1.39,1.12,1.12,0,0,0-1.62,0,5,5,0,0,0-1,1.25,24.57,24.57,0,0,1-2.84,3.93l-.63.77a2.79,2.79,0,0,1-2.69,1.09.71.71,0,0,1-.34-.1.5.5,0,0,1,.11-.32,7,7,0,0,0,2.25-4.24,28,28,0,0,0,.61-4.23,19.12,19.12,0,0,0,0-3.73,2.41,2.41,0,0,1,1.14-2.42c1.39-1,2.73-2.1,4-3.17l1.61-1.32.19-.15a27.7,27.7,0,0,0,4.42-4.12,1.35,1.35,0,0,0,.38-1.25,1.42,1.42,0,0,0-1.08-.8c-.41-.12-.82-.21-1.25-.31l-.59-.15h-.11c-.25.07-.5.16-.74.25a4.37,4.37,0,0,1-1.45.37h0c-2.33,0-3.87,1.55-5.11,2.79a9.05,9.05,0,0,0-2.64,6.12,3.33,3.33,0,0,1-1.24,2.68,34.85,34.85,0,0,0-5.11,4.53,1.87,1.87,0,0,1-1.7.8,2.18,2.18,0,0,0-2.37,1.6,5.12,5.12,0,0,0-.23.73,6,6,0,0,1-.22.68l0,.09a2.5,2.5,0,0,1-.52.91c-1.29,1.11-2.63,2.22-3.92,3.29l-1.76,1.47-.21.17a5.83,5.83,0,0,0-.88.84l0,0a1.08,1.08,0,0,0-.32.8.83.83,0,0,0,.4.51,1,1,0,0,0,.54.18.94.94,0,0,0,.65-.31l2-1.84c1.36-1.23,2.77-2.51,4.11-3.81.25-.23.37-.27.45-.27s.22.13.38.33a3.29,3.29,0,0,1,.23.33l.24.35c1.28,1.65,2.79,3.22,5.12,3.59a12.26,12.26,0,0,1,2.36.61,2.89,2.89,0,0,0,3.37-.68l.53-.54a29.28,29.28,0,0,0,2.13-2.31c.06-.08.25-.31.36-.31s.17.08.28.22c1,1.32,2.31.9,3.3.39a11.07,11.07,0,0,0,3.59-2.54l.08,0a.53.53,0,0,1,0,.2c-.29.5-.6,1-.92,1.44a.8.8,0,0,0,.17,1.2,1.33,1.33,0,0,0,1,.37,1.5,1.5,0,0,0,1-.61l.51-.63c.69-.85,1.41-1.73,2.14-2.58a10,10,0,0,1,.81-.78c-.06.32-.11.65-.17,1a1.43,1.43,0,0,0,0,.22,2.67,2.67,0,0,1-.21.74.94.94,0,0,0,.37,1.35,1.38,1.38,0,0,1,.28.25.83.83,0,0,0,.54.33,1.3,1.3,0,0,0,.87-.37,1.63,1.63,0,0,1,.37-.21c.12-.06.25-.12.36-.19a5.79,5.79,0,0,0,.55-.43,2.62,2.62,0,0,1,1-.6c.12,0,.19,0,.21,0s.06.25.06.4c0,.34,0,.86.56,1,.05,0,.14.11.21.18a.8.8,0,0,0,.46.32,8.12,8.12,0,0,1,.89.21,3,3,0,0,0,2.71-.14,2.24,2.24,0,0,1,2.29-.08,2.56,2.56,0,0,0,1.75,0,13.42,13.42,0,0,0,5-2.51l.06-.05c.54-.43,1.11-.87,1.85-.44.44.25,1.13-.17,1.43-.43s.5-.6.41-.84C424.49,402.39,423.62,402.42,423.33,402.43Zm-6.27-.69c.74-.68,1.57-1.35,1.93-1.05s-2.88,3.1-3.14,2.91S416.35,402.39,417.06,401.74Zm-31.62,3.81a2.81,2.81,0,0,0-.1.31,1,1,0,0,1-.16.41c-.38.41-.8.81-1.2,1.2l-.3.28-.2-.32c-.24-.39-.48-.79-.71-1.19s-.49-.85-.73-1.28c-.49-.87-1-1.78-1.55-2.63-.3-.46-.28-.67.09-1l2.07-1.89c.7-.66,1.41-1.31,2.12-2,.23-.21.5-.4.75-.59l.43-.32.26-.22a2.37,2.37,0,0,1,.08.42c0,.66,0,1.33,0,2.1v1.08A12.81,12.81,0,0,1,385.44,405.55Zm-4.13,2.53c-1-.81-1.88-1.66-2.73-2.51a3,3,0,0,1-.54-1,1.27,1.27,0,0,1,.23-.76,1.83,1.83,0,0,1,.6-.7l.05,0a.71.71,0,0,1,.22.18c.83,1.45,1.64,2.93,2.47,4.44a1.33,1.33,0,0,1,.1.24l-.06,0A1.88,1.88,0,0,1,381.31,408.08Zm6.74-15c.47-2.09,1-4.46,2.94-6.15a5.68,5.68,0,0,1,3.7-1.68,10.19,10.19,0,0,0,1.48-.17l.8-.12a1,1,0,0,1,.33.12.76.76,0,0,1-.13.33c-.85.8-1.72,1.59-2.59,2.33-2,1.7-4,3.36-6.33,5.33a.42.42,0,0,1-.19.09A.12.12,0,0,1,388.05,393.07Z" transform="translate(-285.86 -141.83)"/><path class="cls-1" d="M437.88,396.71c.6-1,1.21-2,1.87-2.9.25-.35.43-.64.59-.89a4.86,4.86,0,0,1,2.08-2,1.16,1.16,0,0,0,.6-.7.76.76,0,0,0-.14-.59,2,2,0,0,0-.76-.6,2.32,2.32,0,0,1-.31-.19.21.21,0,0,0-.13,0,15.47,15.47,0,0,0-3.82,2.22c-1.81,1.23-3.87,2.62-4.84,2.78-.78.13-1,.46-1.07.72a.94.94,0,0,0,.45.92,1,1,0,0,0,1.15.07c.19-.12.51-.34.88-.61a16.85,16.85,0,0,1,3.19-2c.12.11.15.42-.35,1.33-1.12,1.76-2,3.28-2.86,4.74-1,1.76-2.1,3.57-3.6,5.9l-.11.15a.79.79,0,0,0-.23.55,1.38,1.38,0,0,0,.44.74.53.53,0,0,0,.4.21h0a.76.76,0,0,0,.5-.4c.26-.4.53-.8.8-1.19.48-.71,1-1.43,1.41-2.17.74-1.26,1.3-2.13,1.91-3.06.43-.66.87-1.34,1.41-2.22C437.55,397.26,437.72,397,437.88,396.71Z" transform="translate(-285.86 -141.83)"/><g id="SW8bMD"><path class="cls-1" d="M498.36,454.89a.82.82,0,0,0-.25-.12,4.17,4.17,0,0,1-2.16-.83,5,5,0,0,1-2.11-3.45,5.59,5.59,0,0,1,.07-2.37,6.1,6.1,0,0,1,.53-1.63,5.34,5.34,0,0,1,3.35-2.71,4.79,4.79,0,0,1,1.81-.16,5.3,5.3,0,0,1,1.66.44,5.11,5.11,0,0,1,2.18,2,5.5,5.5,0,0,1,.76,2.78,6.48,6.48,0,0,1-.51,2.78,5.4,5.4,0,0,1-2.21,2.53,3.94,3.94,0,0,1-2,.64s-.08.07-.12.11Zm3.54-5.7a3.37,3.37,0,0,0-.26-1.63,2.93,2.93,0,0,0-2.92-2.07,3.17,3.17,0,0,0-2.13,1.38,5.92,5.92,0,0,0-.51,2.27,9.26,9.26,0,0,0,.11,1.17,3.29,3.29,0,0,0,1.42,2.23,2.5,2.5,0,0,0,3.55-.71A4.21,4.21,0,0,0,501.9,449.19Z" transform="translate(-285.86 -141.83)"/><path class="cls-1" d="M360.64,454.89a1.13,1.13,0,0,0-.25-.12,4.17,4.17,0,0,1-2.17-.83,4.63,4.63,0,0,1-1.6-1.88,5,5,0,0,1-.55-2.26c0-.34,0-.68,0-1a3.12,3.12,0,0,1,.11-.61,10.56,10.56,0,0,1,.37-1.3,4.14,4.14,0,0,1,.88-1.41,15.68,15.68,0,0,1,1.22-1.08,5.41,5.41,0,0,1,2.89-.78,4.89,4.89,0,0,1,4.28,2.65,5.44,5.44,0,0,1,.65,2.62,6.21,6.21,0,0,1-.54,2.84,5.25,5.25,0,0,1-2.19,2.42,4,4,0,0,1-2,.64s-.08.07-.12.11Zm3.54-5.64a3.85,3.85,0,0,0-.78-2.64,2.59,2.59,0,0,0-4.4.18,4,4,0,0,0-.64,2.3,6.57,6.57,0,0,0,.11,1.24,3.21,3.21,0,0,0,1.88,2.45,2.29,2.29,0,0,0,1.64.15,2.83,2.83,0,0,0,1.69-1.48A4.32,4.32,0,0,0,364.18,449.25Z" transform="translate(-285.86 -141.83)"/><path class="cls-1" d="M476.56,424.21a5.54,5.54,0,0,1,2.17.84,5.43,5.43,0,0,1,2.13,3.45,15,15,0,0,1-.08,2.32,5.59,5.59,0,0,1-.92,2.27,5.18,5.18,0,0,1-3,2.13,7.14,7.14,0,0,1-1.79.14,3.82,3.82,0,0,1-1.6-.4,5.93,5.93,0,0,1-1.7-1.25,5.62,5.62,0,0,1-.92-1.54,7.14,7.14,0,0,1-.37-3.14,1.79,1.79,0,0,1,.13-.6,8.07,8.07,0,0,1,.79-1.86,6.8,6.8,0,0,1,1.12-1.27,6.31,6.31,0,0,1,2.59-1.09A5.28,5.28,0,0,1,476.56,424.21Zm-3.79,5.46a4,4,0,0,0,.77,2.69,2.63,2.63,0,0,0,3,1,2.56,2.56,0,0,0,1.39-1.2,4.2,4.2,0,0,0,.63-2.43,4.3,4.3,0,0,0-.86-2.66,2.81,2.81,0,0,0-1.71-1,2.22,2.22,0,0,0-1.68.32,3,3,0,0,0-1.18,1.33A3.68,3.68,0,0,0,472.77,429.67Z" transform="translate(-285.86 -141.83)"/><path class="cls-1" d="M395.14,424.18a3.68,3.68,0,0,1,1.26.38c.15.08.3.13.36.31s.08.09.13.1.14-.14.26,0c.36.34.77.65,1.1,1a5.25,5.25,0,0,1,1.12,2.51,2.26,2.26,0,0,1-.06,1.36.35.35,0,0,0,0,.24c.31.41,0,.82,0,1.19a5.58,5.58,0,0,1-2.43,3.35,4.53,4.53,0,0,1-1.67.64,5,5,0,0,1-5.79-3.25,6.82,6.82,0,0,1-.3-3,5.4,5.4,0,0,1,1.46-3.21,4.92,4.92,0,0,1,1.54-1.17c.12-.05.22-.12.27.08s.12.1.12,0,0-.29.23-.27c0,0,.11,0,.13,0,.29-.29.45-.27.92-.33A8.54,8.54,0,0,1,395.14,424.18Zm-3.84,5.53a4.51,4.51,0,0,0,.49,2.22,3.21,3.21,0,0,0,1.51,1.43,3,3,0,0,0,1.18.11,1.94,1.94,0,0,0,1.39-.56,3.61,3.61,0,0,0,1.22-2.38,4.53,4.53,0,0,0-.82-3.48,2.62,2.62,0,0,0-1.81-1,2.58,2.58,0,0,0-2.62,1.44A4,4,0,0,0,391.3,429.71Z" transform="translate(-285.86 -141.83)"/><path class="cls-1" d="M340.68,424.19a4.75,4.75,0,0,1,1.7.5,5.47,5.47,0,0,1,1.4,1,3.37,3.37,0,0,1,.78,1.12.54.54,0,0,1,0,.19c-.39.17-.09.34,0,.37s.27.27.33.47a3.71,3.71,0,0,1,.22,1.28,11.07,11.07,0,0,1-.11,1.81,5.26,5.26,0,0,1-1.26,2.58,8.9,8.9,0,0,1-1.22,1.08,4.5,4.5,0,0,1-1.7.68,4.36,4.36,0,0,1-1.24.1,4.56,4.56,0,0,1-3-1.19,5.13,5.13,0,0,1-1.61-2.47,4.75,4.75,0,0,1-.19-1,7.8,7.8,0,0,1,.22-2.67,6.21,6.21,0,0,1,1.1-2.06,5.09,5.09,0,0,1,2.1-1.53,3.29,3.29,0,0,1,1.07-.26Zm2.26,5.63c-.06-.39-.1-.78-.17-1.17a3.1,3.1,0,0,0-1.7-2.38,2.5,2.5,0,0,0-3.24.86,4.13,4.13,0,0,0-.76,2.45.72.72,0,0,1-.16.58c-.18.2-.14.34.11.51.09.06.17.08.18.21a2.65,2.65,0,0,0,.74,1.6,2.6,2.6,0,0,0,3,.85,2.53,2.53,0,0,0,1.32-1.2A4.52,4.52,0,0,0,342.94,429.82Z" transform="translate(-285.86 -141.83)"/><path class="cls-1" d="M323.52,424.64a.27.27,0,0,1,.27-.29h1.87c.19,0,.28.07.25.26a8.2,8.2,0,0,0-.1.85c0,1,0,1.94,0,2.91a.29.29,0,0,0,.29.29q1.74,0,3.48,0c.2,0,.3,0,.29-.28,0-1.11,0-2.23,0-3.35a2.13,2.13,0,0,0,0-.25c-.06-.35,0-.42.28-.42h1.78c.18,0,.28,0,.26.24s.09.67-.11,1a.13.13,0,0,0,0,.12c.23.4-.07.8,0,1.21a9.61,9.61,0,0,1,0,1.2c0,1.33,0,2.66,0,4,0,.35.07,1.17.06,1.23s0,.6,0,.66a5,5,0,0,0,.05.5c.06.61.05.63-.57.63h-1.39c-.4,0-.48-.1-.4-.48a1.51,1.51,0,0,0,.06-.36c0-1.21,0-2.41,0-3.61,0-.38-.05-.34-.36-.34-1.14,0-2.28,0-3.42,0-.23,0-.28.09-.28.29,0,1,0,2.07,0,3.11,0,.25.19.48.06.77,0,.06-.06.16-.1.24a.23.23,0,0,0,0,.13c.34.13,0,.19,0,.26s-.08,0-.12,0h-1.73c-.15,0-.23,0-.27-.19s0-2,0-2.08q0-3.24,0-6.48S323.54,425.32,323.52,424.64Z" transform="translate(-285.86 -141.83)"/><path class="cls-1" d="M519.9,433.86s-.11.07-.11.12c0,.23,0,.46,0,.69,0,.51,0,.47-.44.44a2.79,2.79,0,0,1-1.18-.09c-.12-.07-.34.09-.52.09h-4.5c-.38,0-.34-.06-.34-.36,0-.48,0-1,0-1.45a65.26,65.26,0,0,0,.08-6.56c0-.68-.09-1.37-.09-2.06,0-.33,0-.33.35-.34h6c.33,0,.41,0,.33.29a4.88,4.88,0,0,0-.1,1.37c0,.2-.09.27-.27.24a28.25,28.25,0,0,0-3.9-.13c-.23,0-.29.07-.28.29,0,.65,0,1.31,0,2,0,.29,0,.29.33.29h3c.36,0,.37,0,.37.38v1.2c0,.16-.08.22-.25.15a.89.89,0,0,0-.36-.07c-.93,0-1.86,0-2.79,0-.22,0-.31.08-.29.29a10.12,10.12,0,0,0,.12,2.13c0,.06,0,.15,0,.23-.06.29,0,.39.28.39a26.91,26.91,0,0,0,2.84,0c.59-.05,1.17-.06,1.75-.09Z" transform="translate(-285.86 -141.83)"/><path class="cls-1" d="M357.85,433.32c0-1.06-.09-2.19-.13-3.32,0-.17-.06-.37,0-.5s0-.2,0-.3a1.42,1.42,0,0,1-.1-.29c-.11-.23.44-.41,0-.66,0-.24,0-.49-.06-.74s0-.55,0-.82c0-.05,0-.09,0-.13a2.61,2.61,0,0,0-.06-.27,1.82,1.82,0,0,0-.15.27c-.21.8-.39,1.6-.62,2.38-.43,1.46-1,2.87-1.5,4.3-.18.48-.3,1-.44,1.47s-.15.4-.5.41h-.89c-.51,0-.53,0-.63-.46a23,23,0,0,0-.94-3.06c-.33-1-.68-1.89-1-2.86a9.81,9.81,0,0,1-.53-2.34s0-.07,0-.11a.34.34,0,0,0-.07.15c-.05.81-.09,1.62-.13,2.44-.05,1,0,2.1-.15,3.13s-.07,1.76-.11,2.64c0,.42-.05.48-.47.46a2.9,2.9,0,0,1-1.24-.09c-.06,0-.18.07-.27.09s-.24-.09-.22-.26c.06-.57.08-1.16.19-1.73a13.42,13.42,0,0,1,.22-1.53c.09-.33,0-.69.12-1a13.12,13.12,0,0,0,.16-1.55c.06-.51.14-1,.21-1.52l0-.12c0-.61.09-1.21.13-1.81a3.17,3.17,0,0,1,0-.44,1.43,1.43,0,0,1,.19-.7c.09-.1.39-.06.6,0a5.22,5.22,0,0,1,1.67.09s.07-.06.11-.06a1.26,1.26,0,0,1,.61,0c.1,0,.07.33.11.5.31,1.13.61,2.26.94,3.38.25.87.54,1.72.78,2.59.1.38.13.77.2,1.16,0,.06.11.11.17.17a.58.58,0,0,0,0-.18,11.88,11.88,0,0,1,.58-2.2c.42-1.23.85-2.44,1.25-3.67a5,5,0,0,0,.34-1.57c0-.16.06-.22.22-.22h2.72c.15,0,.23,0,.24.21s.09.45.1.67,0,.72,0,1.08c0,.83,0,1.67.15,2.5a12.94,12.94,0,0,0,.12,1.42c.17.68.08,1.37.2,2a18.75,18.75,0,0,1,.16,2.5.27.27,0,0,1,0,.18c0,.06-.1.15-.15.15h-2c-.2,0-.29-.13-.29-.33Z" transform="translate(-285.86 -141.83)"/><path class="cls-1" d="M403.7,446.62c0-.48,0-1,0-1.46s-.07-.69-.11-1c0-.19.05-.26.24-.26h2a.25.25,0,0,1,.28.17,39,39,0,0,0,2.58,4.24,32.14,32.14,0,0,1,1.7,3l.08.14a.49.49,0,0,0,.06-.17,4.07,4.07,0,0,0-.11-1.3,1.08,1.08,0,0,1,0-.44c0-1.31,0-2.62,0-3.93,0-.48-.09-1-.11-1.43,0-.3,0-.31.32-.31h1.58c.17,0,.29,0,.19.25a1.35,1.35,0,0,0-.06.49v9.19a1.2,1.2,0,0,0,0,.19c0,.16.06.31.08.47-.18,0-.36.06-.54.07h-1.27a.32.32,0,0,1-.34-.19c-.67-1.09-1.38-2.17-2.07-3.25s-1.45-2.21-2.16-3.33a1.52,1.52,0,0,1-.31-.8.5.5,0,0,0-.09-.23l-.21-.3a1.06,1.06,0,0,0-.06.34c0,.35.08.7.12,1.05s0,.66.08,1a8.53,8.53,0,0,1,.05.89c0,1.44,0,2.87,0,4.31a3.78,3.78,0,0,0,.06.47l-.56,0H403.8c-.16,0-.23-.07-.21-.23a3,3,0,0,1,.09-1,1.37,1.37,0,0,0,0-.5c0-1.25,0-2.49,0-3.74,0-.47,0-.47.47-.63l.14-.08-.12-.14a.25.25,0,0,0-.12,0c-.36,0-.37,0-.37-.35v-1.2Z" transform="translate(-285.86 -141.83)"/><path class="cls-1" d="M348,454.52a8.61,8.61,0,0,0-.88,0c-.26,0-.36-.1-.47-.31-.21-.44-.45-.87-.7-1.3-.15-.24-.23-.23-.44,0L344.22,454a3.09,3.09,0,0,1-1.82.72,4.53,4.53,0,0,1-2.15-.21,2.63,2.63,0,0,1-1.79-2.43,3.4,3.4,0,0,1,1.15-2.84,5.36,5.36,0,0,1,.94-.6c.22-.14.22-.2,0-.38a3.3,3.3,0,0,1-1.14-1.61,2.15,2.15,0,0,1,1.39-2.65c.24.23.2-.13.34-.18a3.76,3.76,0,0,1,3.16.3,1.9,1.9,0,0,1,1,1.74,2.22,2.22,0,0,1-1.14,2.08l-.27.15c-.16.09-.11.18,0,.27s.35.24.5.37c.42.36.82.73,1.22,1.09.17.14.31.11.39-.08a2.76,2.76,0,0,0,.15-1.24c0-.15.05-.23.22-.23.57,0,1.14,0,1.71,0,.23,0,.23,0,.16.26a6.59,6.59,0,0,1-1.15,2.05c-.25.34-.26.43,0,.74a10.89,10.89,0,0,1,1.95,2.89c.13.27.12.28-.2.29Zm-7.47-3.35a1.82,1.82,0,0,0,1.15,1.89,2.29,2.29,0,0,0,1.55,0,4.15,4.15,0,0,0,1.65-1.18c.15-.16.09-.3,0-.43l-.85-.85a9.41,9.41,0,0,0-1.77-1.37.45.45,0,0,0-.45,0A2.3,2.3,0,0,0,340.49,451.17Zm1.92-6.16a1.08,1.08,0,0,0-1,1.6,1.93,1.93,0,0,0,.77.78c.51.32.6.33,1-.08a1.89,1.89,0,0,0,.34-.51A1.21,1.21,0,0,0,342.41,445Z" transform="translate(-285.86 -141.83)"/><path class="cls-1" d="M446.21,424.35c.67,0,1.35,0,2,0a4.9,4.9,0,0,1,2.3.66,4.51,4.51,0,0,1,2.08,2.77,5.47,5.47,0,0,1,.17,2.32,6.62,6.62,0,0,1-1.16,3,5.15,5.15,0,0,1-2.88,1.93,4.71,4.71,0,0,1-1.24.13H444c-.18,0-.3,0-.27-.24a13.06,13.06,0,0,1,.11-2.07,1.19,1.19,0,0,0,0-.38c0-1.87,0-3.75,0-5.63,0-.71-.1-1.41-.1-2.12,0-.32,0-.33.3-.33Zm-.31,4.24c0,1.7,0,3,.12,4.25.05.5.05.55.54.62h.26a8.58,8.58,0,0,0,1.35-.14,2.59,2.59,0,0,0,1.56-1,4.77,4.77,0,0,0,.77-2.13,4.57,4.57,0,0,0-.17-1.81,3.17,3.17,0,0,0-2.23-2.21,6.89,6.89,0,0,0-1.92-.14c-.23,0-.29.09-.28.3Z" transform="translate(-285.86 -141.83)"/><path class="cls-1" d="M381.24,424.35h2.09a3.73,3.73,0,0,1,1.61.38,2.19,2.19,0,0,1,1.39,2,2.73,2.73,0,0,1-1.39,2.61c-.19.11-.4.2-.6.31,0,0-.11.07-.11.11a.19.19,0,0,0,.1.12,3.2,3.2,0,0,1,1.44,1.51,30.77,30.77,0,0,1,1.43,3.34c.1.28.06.34-.22.35-.62,0-1.23,0-1.84,0a.35.35,0,0,1-.39-.31,16.05,16.05,0,0,0-.68-1.91c-.15-.39-.32-.76-.49-1.14a1.65,1.65,0,0,0-1.37-.94,8,8,0,0,0-1.2,0c-.24.36-.08.77-.09,1.15,0,.9,0,1.81,0,2.72,0,.52,0,.44-.46.42a3.07,3.07,0,0,1-1.24-.08h0a.36.36,0,0,1-.51,0c-.09-.1-.05-.32,0-.48.16-2.65.11-5.3.11-7.95,0-.08,0-.2,0-.24.22-.2.05-.37,0-.55s-.09-.15-.09-.23c0-.27,0-.55,0-.82,0-.12.2-.2.05-.32.05,0,.11-.09.16-.09Zm.6,5c.22,0,.57-.08.91-.15a1.58,1.58,0,0,0,1.38-1.24,1.53,1.53,0,0,0-1-1.92,4.1,4.1,0,0,0-.48-.1,4.8,4.8,0,0,0-1.73.1.27.27,0,0,0-.11.19c0,.31.09.62.11.92,0,.47,0,.93,0,1.4,0,.24-.06.58.07.71S381.45,429.29,381.84,429.32Z" transform="translate(-285.86 -141.83)"/><path class="cls-1" d="M371.54,452.47c0,.61,0,1.22,0,1.83,0,.16-.07.22-.23.22h-1.83c-.21,0-.25-.09-.24-.27a7.87,7.87,0,0,1,.11-1.81,1.14,1.14,0,0,0,0-.37c0-2,0-4,0-6,0-.62-.08-1.24-.11-1.87,0-.31,0-.31.3-.32h.19c1.17,0,2.35-.11,3.52-.1a6.2,6.2,0,0,1,2.12.35,2.18,2.18,0,0,1,1.21.92.9.9,0,0,1,.15.46c0,.26-.06.5.18.69a.43.43,0,0,1,.05.36,3.18,3.18,0,0,1-.57,1.54l-.27.3c0-.12-.42.44-.7.56a3,3,0,0,1-.43.23c-.26.08-.11.17,0,.22a3.37,3.37,0,0,1,1.44,1.57c.54,1.07,1,2.19,1.39,3.3.08.22.06.26-.16.26h-1.9c-.26,0-.35-.11-.43-.35-.28-.83-.57-1.67-.89-2.49a1.87,1.87,0,0,0-1.21-1.25,3.16,3.16,0,0,0-.86-.1,5.29,5.29,0,0,0-.8.06l0,.75v1.33Zm1.19-7.08h-.88c-.38.05-.49.14-.42.52a9.79,9.79,0,0,1,.1,1.62v1.08c0,.13.06.17.19.18a5.38,5.38,0,0,0,2-.25,1.57,1.57,0,0,0,1.07-1.64,1.46,1.46,0,0,0-1.1-1.41A3.11,3.11,0,0,0,372.73,445.39Z" transform="translate(-285.86 -141.83)"/><path class="cls-1" d="M409.8,435.12H409c-.52,0-.53,0-.63-.53a21.32,21.32,0,0,0-.62-2.38c-.07-.23-.15-.25-.34-.25h-3c-.41,0-.52.07-.62.46-.15.54-.27,1.07-.4,1.61,0,.22-.09.45-.13.67s-.16.41-.5.41h-1.71c-.32,0-.41-.12-.3-.42s.3-.85.46-1.27c.43-1.16.86-2.31,1.3-3.46s.89-2.3,1.31-3.46c.22-.61.4-1.24.59-1.87,0-.19.14-.29.34-.29h2.47a.5.5,0,0,1,.48.43c.15.48.28,1,.45,1.47.57,1.68,1.18,3.36,1.75,5.06.39,1.16.74,2.34,1.13,3.51.07.21,0,.28-.16.29-.38,0-.76,0-1.14,0Zm-4-4.69H407c.3,0,.34-.06.26-.32-.25-.8-.51-1.6-.76-2.4-.09-.32-.38-.62-.13-1a.18.18,0,0,0,0-.08c-.26-.12-.29-.36-.31-.61a.61.61,0,0,0,0-.11.54.54,0,0,0-.09.12,2.36,2.36,0,0,0-.12.28c-.25.8-.5,1.6-.76,2.39-.15.47-.32.93-.47,1.39-.09.28-.06.32.25.33Z" transform="translate(-285.86 -141.83)"/><path class="cls-1" d="M478.38,443.86h1.2c.31,0,.35,0,.41.36a8.71,8.71,0,0,1,.4,1.6,9.53,9.53,0,0,1,.8,2.12c.69,1.95,1.33,3.92,2,5.88,0,0,.05.07.06.11.17.59.17.59-.43.59H481c-.19,0-.26,0-.32-.26-.17-.76-.4-1.5-.61-2.25a1.72,1.72,0,0,0,0-.24c-.07-.17-.13-.33-.39-.31s-.8,0-1.2,0h-1.84c-.4,0-.42,0-.53.41a17.07,17.07,0,0,0-.57,2.21c0,.37-.14.43-.53.43h-1.77c-.2,0-.27-.09-.22-.27s.08-.11.08-.17c0-.23.3-.6.3-.74a1.44,1.44,0,0,1,.07-.36c.7-1.86,1.37-3.74,2.1-5.59.36-.94.73-1.87,1-2.84.21-.69.22-.69,1-.68h.82Zm-.34,6.08h1.26c.14,0,.2-.06.18-.19s-.07-.23-.1-.35c-.37-1.3-.91-2.55-1.18-3.89,0,0,0-.06-.05-.09a.44.44,0,0,0-.1.08.89.89,0,0,0-.08.17c-.31,1.15-.66,2.28-1.08,3.4a4.84,4.84,0,0,0-.19.65c0,.14,0,.23.2.23Z" transform="translate(-285.86 -141.83)"/><path class="cls-1" d="M420.29,443.86h1.33a.29.29,0,0,1,.33.23,14.93,14.93,0,0,0,.81,2.64c.69,2.13,1.44,4.23,2.15,6.34.15.43.26.86.4,1.29,0,.11,0,.15-.08.15h-2.34c-.14,0-.17-.09-.2-.2-.07-.27-.15-.55-.22-.83-.14-.55-.26-1.12-.4-1.67-.07-.28-.16-.35-.48-.35H418.8c-.17,0-.43-.13-.5-.06a1.68,1.68,0,0,0-.26.61c-.14.43-.26.86-.38,1.3,0,.15-.34.53-.28.5s.16,0,.14.08a1.91,1.91,0,0,1-.12.47.24.24,0,0,1-.16.14h-2.09c-.2,0-.19-.16-.15-.27.14-.43.29-.85.45-1.27.35-1,.7-1.89,1.06-2.83s.6-1.61.92-2.41c0,0,.26-.63.28-.7.29-.81.59-1.62.89-2.42,0-.08,0-.16.07-.24.08-.52.08-.52.61-.52Zm-.26,6.08h1.2c.22,0,.23-.12.22-.28a1.16,1.16,0,0,0,0-.18,36.84,36.84,0,0,1-1.24-4s-.05-.07-.07-.06a.17.17,0,0,0-.09.08.87.87,0,0,0-.07.17c-.32,1.14-.68,2.28-1.09,3.4a5.58,5.58,0,0,0-.18.58c0,.16,0,.29.22.28Z" transform="translate(-285.86 -141.83)"/><path class="cls-1" d="M394.73,451.66v2.27c0,.35,0,.37-.38.45a11,11,0,0,1-3.52.38A5,5,0,0,1,386,451a6,6,0,0,1-.17-1.29.65.65,0,0,1,.15-.38c.09-.12,0-.13-.05-.2a1.11,1.11,0,0,1-.08-.65,6.88,6.88,0,0,1,.48-1.52,5.62,5.62,0,0,1,2.23-2.52,5.38,5.38,0,0,1,2.79-.74c.4,0,.8,0,1.2,0s.91.08,1.36.14a.28.28,0,0,1,.15.21c0,.35-.07.7-.13,1s-.1.48-.16.72c-.24,0-.47-.08-.71-.14a5.43,5.43,0,0,0-2.71,0,2.85,2.85,0,0,0-2,1.9,4.44,4.44,0,0,0,.7,4.4,2.9,2.9,0,0,0,1.91,1,6,6,0,0,0,1.47,0c.15,0,.23-.05.22-.22a12.68,12.68,0,0,0-.12-2.13,3.72,3.72,0,0,1,0-.75,2.11,2.11,0,0,0-.09-.49c0-.12,0-.21.12-.21h2c.19,0,.18.13.18.26Z" transform="translate(-285.86 -141.83)"/><path class="cls-1" d="M450.35,451.73c0,.73,0,1.47,0,2.21,0,.25-.15.31-.3.4s-.19.05-.23-.09-.37,0-.34.1.08.13-.05.16a11.38,11.38,0,0,1-3.24.24,5,5,0,0,1-4.42-3.32,5.88,5.88,0,0,1-.22-3.12A6.18,6.18,0,0,1,443.4,445a5.23,5.23,0,0,1,1.53-.93,5.33,5.33,0,0,1,1.68-.38c.55,0,1.1,0,1.64,0s.87.08,1.3.14a.26.26,0,0,1,.15.21c0,.46-.09.91-.15,1.36a.66.66,0,0,1-.15.39c-.08.05-.26,0-.4-.07a11.08,11.08,0,0,0-2.15-.26,3.23,3.23,0,0,0-1.63.51,3.08,3.08,0,0,0-1.32,1.89,4.4,4.4,0,0,0,.14,2.93,3.2,3.2,0,0,0,2.34,2.12,4.27,4.27,0,0,0,1.78,0,.17.17,0,0,0,.16-.22,12.68,12.68,0,0,0-.12-2.13,3.92,3.92,0,0,1,0-.69,2.63,2.63,0,0,0-.09-.55c0-.13,0-.21.12-.21h2c.19,0,.17.14.17.27v2.28Z" transform="translate(-285.86 -141.83)"/><path class="cls-1" d="M437.67,424.35h3c.19,0,.3.08.24.26a5.28,5.28,0,0,0-.11,1.43c0,.16-.07.23-.23.21a6.13,6.13,0,0,0-.73-.11l-3.17,0c-.3,0-.31,0-.31.31,0,.66,0,1.31,0,2,0,.24.09.27.3.27l2.79,0c.12,0,.25,0,.37,0s.23.05.23.22c0,.34,0,.67,0,1,0,.17,0,.33,0,.5a3.4,3.4,0,0,0-.46-.06h-3c-.13,0-.2,0-.2.17,0,.8,0,1.61,0,2.41,0,.35.15.46.5.46.85,0,1.7,0,2.54,0,.54,0,1.07-.08,1.61-.1.24,0,.33.09.27.29a6.23,6.23,0,0,0-.11,1.43c0,.19-.13.18-.26.18-.57,0-1.14,0-1.71,0a14.57,14.57,0,0,1-2.64-.08,10.72,10.72,0,0,1-2.12.09c-.2,0-.26-.08-.24-.26a8.88,8.88,0,0,1,.11-2.06,1.61,1.61,0,0,0,0-.38c0-1.79,0-3.59,0-5.38,0-.71-.07-1.42-.11-2.13,0-.1,0-.21,0-.31s.07-.25.26-.25h3.16Z" transform="translate(-285.86 -141.83)"/><path class="cls-1" d="M506.66,428.65c.53,0,1,0,1.58,0,.18,0,.27,0,.27.24,0,.44,0,.89,0,1.33,0,.14,0,.24-.23.18a1.2,1.2,0,0,0-.42-.08h-2.66c-.42,0-.36,0-.36.39a14,14,0,0,1,0,1.45c0,.31.26.59.05.91a.31.31,0,0,0,.31.29c.95,0,1.91,0,2.85,0,.48,0,1-.07,1.43-.09.29,0,.35,0,.29.33a6.34,6.34,0,0,0-.11,1.37c0,.12,0,.2-.18.2h-2.79c-.15-.18-.3,0-.45,0-1.1,0-2.2,0-3.29,0-.19,0-.28-.05-.26-.25a8.39,8.39,0,0,1,.11-2.06,1.61,1.61,0,0,0,0-.38c0-1.88,0-3.76,0-5.64,0-.7-.12-1.41-.1-2.12,0-.31,0-.32.31-.31s.63,0,.94,0,.6,0,.9,0h.95c.32,0,.63,0,1,0,.16,0,.35.12.46.06s.31,0,.43.12a.14.14,0,0,0,.14,0c.12-.2.32-.17.51-.17H509c.35,0,.46.1.34.4a3.61,3.61,0,0,0-.1,1.18c0,.32,0,.37-.37.31a24.7,24.7,0,0,0-3.65-.11c-.48,0-.43,0-.42.45s0,1.22,0,1.83c0,.19.06.26.25.26h1.59Z" transform="translate(-285.86 -141.83)"/><path class="cls-1" d="M366.19,424.35c.68,0,1.36,0,2,0,.3,0,.55.2.89.05a2.32,2.32,0,0,1,.88,0c.35,0,.41.13.36.48s-.06.78-.08,1.18c0,.2-.09.27-.27.24a28.79,28.79,0,0,0-3.83-.13.37.37,0,0,1-.18,0c-.08-.05-.16-.08-.16.05,0,.78,0,1.57,0,2.35,0,.12,0,.19.18.18s.42,0,.63,0c.87,0,1.73,0,2.6,0,.17,0,.27,0,.27.24,0,.45,0,.89,0,1.33,0,.15-.05.24-.23.18a1.2,1.2,0,0,0-.42-.08H366.2c-.4,0-.37,0-.36.39s0,1,0,1.45a9.11,9.11,0,0,0,.11,1.05.21.21,0,0,0,.16.14H367c.47,0,.93,0,1.4,0s.85-.07,1.28,0a5.08,5.08,0,0,0,.85-.11c.14,0,.26,0,.23.2a10.25,10.25,0,0,0-.12,1.56s-.1.12-.17.13a5,5,0,0,1-1,0,16.25,16.25,0,0,1-3-.06,10.51,10.51,0,0,1-2.17.07c-.72,0-.75,0-.71-.73.15-2.46.12-4.92.11-7.38,0-.76-.08-1.51-.11-2.26,0-.42,0-.39.36-.39Z" transform="translate(-285.86 -141.83)"/><path class="cls-1" d="M457.12,454.52H454c-.31,0-.33,0-.31-.31a7.9,7.9,0,0,1,.1-1.94,1.14,1.14,0,0,0,0-.37c0-1.9,0-3.8,0-5.7,0-.66-.1-1.33-.09-2,0-.33,0-.34.34-.34h6.2c.14,0,.2.1.16.21a3.38,3.38,0,0,0-.11,1.3c0,.24-.09.29-.3.28l-3,0c-.33,0-.66-.07-1-.1-.12,0-.19.05-.19.18,0,.76,0,1.52,0,2.28,0,.12,0,.18.19.18h2.78a1.16,1.16,0,0,0,.18,0c.43-.1.51,0,.52.4s0,.72,0,1.08c0,.15,0,.24-.21.23-.48,0-1-.06-1.44-.06s-1.23,0-1.85.05c-.2,0-.18.14-.17.26a10,10,0,0,0,.1,2.25c.05.15,0,.38.07.47s.32.05.48.05a10,10,0,0,0,1.64,0,17,17,0,0,1,2.13-.1h.32c.12,0,.2.06.18.19s-.08.49-.1.73-.06.57-.09.86h-3.41Z" transform="translate(-285.86 -141.83)"/><path class="cls-1" d="M418.09,424.18l1.87.17a1.59,1.59,0,0,1,.47.14.26.26,0,0,1,.12.23,7.67,7.67,0,0,0-.23,1.34c0,.16-.1.22-.25.2s-.44-.08-.66-.14-.22-.16-.35-.19-.23.06-.35.06a1.59,1.59,0,0,1-.43-.06,3.3,3.3,0,0,0-1.81.24.68.68,0,0,0-.48.67,1.05,1.05,0,0,0,.53,1.06c.4.21.8.44,1.22.61a11,11,0,0,1,2.17,1.15,2.51,2.51,0,0,1,1,1.82c0,.23.08.44.12.67s0,.19,0,.24c-.16.21,0,.46-.1.68,0,.06,0,.16,0,.24s-.14.3-.22.44a1.49,1.49,0,0,1-.28.41,4.39,4.39,0,0,1-.57.48c-.23.18-.23.21-.45.24s-.25.1-.5.19a5.52,5.52,0,0,1-1.1.28,8.68,8.68,0,0,1-2.1,0c-.57-.06-1.15-.16-1.71-.26a.58.58,0,0,1-.37-.21c0-.06.06-.22.08-.34.06-.3.11-.61.16-.91,0-.14.09-.28.12-.42s.06-.09.16-.07a15.61,15.61,0,0,0,1.57.36,5.35,5.35,0,0,0,1.78,0,1.6,1.6,0,0,1,.38,0,.78.78,0,0,0,.57-.19c.19-.16.46-.23.48-.53a1.31,1.31,0,0,0-.28-1.05,4.9,4.9,0,0,0-1.69-1,6.45,6.45,0,0,1-2.44-1.54,2.45,2.45,0,0,1-.66-1.64,4.74,4.74,0,0,1,0-1,2.62,2.62,0,0,1,1.65-1.89A6.11,6.11,0,0,1,418.09,424.18Z" transform="translate(-285.86 -141.83)"/><path class="cls-1" d="M466,435.26a6.21,6.21,0,0,1-2.22-.26,4.94,4.94,0,0,1-3.34-3.49,5.51,5.51,0,0,1-.08-2.71,5.94,5.94,0,0,1,1.72-3.16,5.29,5.29,0,0,1,2.63-1.31,11.48,11.48,0,0,1,2.19-.1,4.17,4.17,0,0,1,.85.13.3.3,0,0,1,.24.38c-.09.51-.17,1-.27,1.52,0,0-.14.11-.17.09-.52-.27-1.11-.15-1.63-.34a4,4,0,0,0-2.14.71,3.34,3.34,0,0,0-1.12,2.3,3.07,3.07,0,0,1-.07.42.62.62,0,0,0,0,.18,4.88,4.88,0,0,0,.85,2.54,3.38,3.38,0,0,0,1.14.94,4.15,4.15,0,0,0,1.35.36,4.63,4.63,0,0,0,1.85-.19l.06,0c.58-.15.58-.15.57.46,0,.29,0,.59,0,.88s-.08.45-.5.55a8.44,8.44,0,0,1-1.81.13Z" transform="translate(-285.86 -141.83)"/><path class="cls-1" d="M487.25,424.35h3.1c.26,0,.34.07.26.29a4.47,4.47,0,0,0-.1,1.36c0,.2-.08.28-.26.25a20.57,20.57,0,0,0-3.33-.12c-.31,0-.63,0-.94,0-.05,0-.15.12-.14.15a4.32,4.32,0,0,1,.1,1.43c0,.42,0,.85,0,1.27,0,.13.06.19.19.18a11.52,11.52,0,0,0,2.19-.1,3.71,3.71,0,0,1,1,0,.26.26,0,0,1,.28.28c0,.44,0,.88,0,1.33,0,0-.13.14-.21.15a8.61,8.61,0,0,1-.88,0,18,18,0,0,1-2.07-.09c-.57-.09-.49-.06-.49.42,0,.76,0,1.52,0,2.28,0,.33.07.66.1,1a1.15,1.15,0,0,1,0,.37.39.39,0,0,1-.43.34H484c-.19,0-.27-.06-.25-.25a8.91,8.91,0,0,1,.11-2.06,1.07,1.07,0,0,0,0-.31c0-1.84,0-3.67,0-5.51,0-.73-.08-1.45-.11-2.18,0-.49,0-.46.42-.46Z" transform="translate(-285.86 -141.83)"/><path class="cls-1" d="M496.58,424.35h3c.39,0,.45,0,.37.38a5.66,5.66,0,0,0-.1,1.3c0,.15-.06.24-.23.22a6,6,0,0,0-.72-.11l-3.48,0c-.24,0-.23,0-.19.3a3.82,3.82,0,0,1,0,.68c0,.61,0,1.22,0,1.84,0,.15,0,.24.21.22a12.12,12.12,0,0,0,2.25-.1,3.76,3.76,0,0,1,.89,0,.3.3,0,0,1,.32.31v.12c0,.44.1.89-.15,1.29l-1.12.05c-.4,0-.8,0-1.2,0a9.24,9.24,0,0,1-.92-.1c-.17,0-.28,0-.28.23,0,.88,0,1.77,0,2.65a10.4,10.4,0,0,0,.1,1.11c0,.19,0,.39-.2.41s-.43.16-.55-.12-.15-.16-.24-.06c-.35.37-.79.14-1.19.19,0,0-.09-.1-.09-.14a14.33,14.33,0,0,1,.08-2.07,7.93,7.93,0,0,0,0-1.38c0-.93,0-1.86,0-2.79,0-.23.17-.43,0-.69a1.87,1.87,0,0,1,0-.75,3.84,3.84,0,0,0,0-.76,8.39,8.39,0,0,1-.1-1.87c0-.3,0-.31.31-.31Z" transform="translate(-285.86 -141.83)"/><path class="cls-1" d="M427.52,424.35h3.86c.21,0,.38,0,.22.28.16.42-.07.84,0,1.27,0,.19-.08.24-.27.24-.57,0-1.14,0-1.7,0a7,7,0,0,1-.8-.11c-.22,0-.29.06-.29.28,0,1.16,0,2.32,0,3.48s0,2.41,0,3.61a1.71,1.71,0,0,1-.09.92c-.06.12.08.35.1.52s0,.33-.27.3-.4,0-.55,0-.33.12-.52,0-.46,0-.7,0-.26-.09-.25-.27c0-.59,0-1.18,0-1.77V431.7a1.13,1.13,0,0,0,0-.26c-.06-.25.27-.38.18-.67a2.59,2.59,0,0,1-.07-.74c0-.25,0-.5,0-.76l-.12-3.07c0-.12,0-.19-.19-.19a1,1,0,0,0-.25,0,11.8,11.8,0,0,1-2.38.11c-.35,0-.42,0-.33-.4a5.25,5.25,0,0,0,.1-1.12c0-.17,0-.27.25-.26h4Z" transform="translate(-285.86 -141.83)"/><path class="cls-1" d="M489.37,450.07c0,1.35,0,2.7,0,4.05,0,.42,0,.4-.42.4h-1.64c-.15,0-.24,0-.24-.21,0-1.16-.07-2.33,0-3.47a23.83,23.83,0,0,0,.06-3.27c0-.62-.08-1.24-.08-1.87a.16.16,0,0,0-.19-.18,8.59,8.59,0,0,0-1.43.09,5.86,5.86,0,0,1-1.39,0c-.14,0-.17-.1-.16-.22,0-.47.08-.95.13-1.42,0-.05.1-.12.16-.13a2.38,2.38,0,0,1,.38,0H492a2.41,2.41,0,0,1,.38,0,.23.23,0,0,1,.15.15,3.57,3.57,0,0,1,0,.56c0,.16-.07.32-.07.49,0,.57,0,.59-.63.56s-1.41-.08-2.12-.11c-.3,0-.31,0-.31.32v4.23Z" transform="translate(-285.86 -141.83)"/><path class="cls-1" d="M431.19,454.52h-3.1c-.29,0-.31,0-.3-.32a5.19,5.19,0,0,1,.11-1.62.7.7,0,0,0,0-.25c0-2.11,0-4.22,0-6.33,0-.6-.1-1.2-.1-1.81,0-.32,0-.33.29-.33H430c.16,0,.23.07.21.23a9.35,9.35,0,0,0-.11,1.05c0,2.06,0,4.13,0,6.19,0,.44-.07.87-.11,1.31,0,.15.05.22.21.22a18.19,18.19,0,0,0,2.09,0,19.08,19.08,0,0,1,2-.1c.44,0,.4,0,.4.42s0,.68,0,1,0,.36-.34.36Z" transform="translate(-285.86 -141.83)"/><path class="cls-1" d="M467.17,454.52h-3.09c-.3,0-.32,0-.3-.32a5.19,5.19,0,0,1,.1-1.62,1.21,1.21,0,0,0,0-.38c0-2.05,0-4.09,0-6.14,0-.62-.08-1.24-.11-1.87,0-.32,0-.33.29-.33.62,0,1.23,0,1.84,0,.23,0,.29.09.27.3-.25,2.37-.05,4.75-.12,7.12a8.92,8.92,0,0,0-.12,1.36c0,.16,0,.23.21.23.68,0,1.35,0,2,0,.41,0,.81-.21,1.21,0,.23-.17.49-.1.73-.11.6,0,.52-.08.52.55,0,.3,0,.59,0,.89s0,.35-.34.35Z" transform="translate(-285.86 -141.83)"/><path class="cls-1" d="M399.2,454.52h-.83c-.35,0-.38,0-.35-.39s-.11-.84.11-1.24c-.19-.32,0-.63,0-.95,0-1.92,0-3.84,0-5.76,0-.66-.14-1.32-.11-2,0-.32,0-.33.3-.33.61,0,1.22,0,1.84,0,.23,0,.29.1.27.31a9.26,9.26,0,0,0-.11,1.17q0,3.8,0,7.59a11.42,11.42,0,0,0,.12,1.3c0,.21,0,.32-.28.3Z" transform="translate(-285.86 -141.83)"/><path class="cls-1" d="M381.93,454.52h-.82c-.32,0-.34,0-.33-.36,0-1,.1-2,.11-3q0-2.4,0-4.8c0-.65-.07-1.29-.11-1.94v-.38c0-.15,0-.24.2-.23h2c.13,0,.18.07.17.19a1,1,0,0,1,0,.25,24,24,0,0,0-.12,3.39,2.5,2.5,0,0,1-.09,1.05c-.06.14.09.35.09.53,0,.76,0,1.52,0,2.28a3.21,3.21,0,0,0,0,.82,5.23,5.23,0,0,1,0,.89c0,.3.08.61.1.92s0,.32-.3.33Z" transform="translate(-285.86 -141.83)"/></g></svg>